<svg width="1466" height="74" viewBox="0 0 1466 74" fill="none" xmlns="http://www.w3.org/2000/svg">
<path d="M315.705 3.70532L311 -1H732.5H1154L1150.71 2.2911C1127.84 25.1551 1096.83 38 1064.5 38H1029.91C1019.72 38 1009.95 42.0467 1002.75 49.25C995.547 56.4533 985.777 60.5 975.59 60.5H485.41C475.223 60.5 465.453 56.4533 458.25 49.25C451.047 42.0467 441.277 38 431.09 38H398.5C367.446 38 337.664 25.6638 315.705 3.70532Z" fill="white" stroke="url(#paint0_linear_334_53591)" stroke-width="2"/>
<g filter="url(#filter0_b_334_53591)">
<path d="M315.705 3.70532L311 -1H732.5H1154L1150.71 2.2911C1127.84 25.1551 1096.83 38 1064.5 38H1029.91C1019.72 38 1009.95 42.0467 1002.75 49.25C995.547 56.4533 985.777 60.5 975.59 60.5H485.41C475.223 60.5 465.453 56.4533 458.25 49.25C451.047 42.0467 441.277 38 431.09 38H398.5C367.446 38 337.664 25.6638 315.705 3.70532Z" fill="url(#paint1_radial_334_53591)"/>
<path d="M311 -1L315.705 3.70532C337.664 25.6638 367.446 38 398.5 38H431.09C441.277 38 451.047 42.0467 458.25 49.25V49.25C465.453 56.4533 475.223 60.5 485.41 60.5H975.59C985.777 60.5 995.547 56.4533 1002.75 49.25V49.25C1009.95 42.0467 1019.72 38 1029.91 38H1064.5C1096.83 38 1127.84 25.1551 1150.71 2.2911L1154 -1M311 -1H732.5H1154M311 -1H1154" stroke="url(#paint2_linear_334_53591)" stroke-width="2"/>
<path d="M311 -1L315.705 3.70532C337.664 25.6638 367.446 38 398.5 38H431.09C441.277 38 451.047 42.0467 458.25 49.25V49.25C465.453 56.4533 475.223 60.5 485.41 60.5H975.59C985.777 60.5 995.547 56.4533 1002.75 49.25V49.25C1009.95 42.0467 1019.72 38 1029.91 38H1064.5C1096.83 38 1127.84 25.1551 1150.71 2.2911L1154 -1M311 -1H732.5H1154M311 -1H1154" stroke="black" stroke-opacity="0.2" stroke-width="2"/>
</g>
<ellipse opacity="0.98" cx="643.5" cy="60.0003" rx="187.5" ry="9.33333" fill="url(#paint3_radial_334_53591)"/>
<ellipse cx="660.616" cy="60" rx="56.7946" ry="14" fill="url(#paint4_radial_334_53591)"/>
<path fill-rule="evenodd" clip-rule="evenodd" d="M1025.71 44.8542C1025.71 45.8782 1024.88 46.7083 1023.85 46.7083C1022.83 46.7083 1022 45.8782 1022 44.8542C1022 43.8301 1022.83 43 1023.85 43C1024.88 43 1025.71 43.8301 1025.71 44.8542ZM1014.71 49.8542C1014.71 50.8782 1013.88 51.7083 1012.85 51.7083C1011.83 51.7083 1011 50.8782 1011 49.8542C1011 48.8301 1011.83 48 1012.85 48C1013.88 48 1014.71 48.8301 1014.71 49.8542ZM1006.71 56.8542C1006.71 57.8782 1005.88 58.7083 1004.85 58.7083C1003.83 58.7083 1003 57.8782 1003 56.8542C1003 55.8301 1003.83 55 1004.85 55C1005.88 55 1006.71 55.8301 1006.71 56.8542ZM992.854 64.7083C993.878 64.7083 994.708 63.8782 994.708 62.8542C994.708 61.8301 993.878 61 992.854 61C991.83 61 991 61.8301 991 62.8542C991 63.8782 991.83 64.7083 992.854 64.7083ZM999.563 64.7083C1000.59 64.7083 1001.42 63.8782 1001.42 62.8542C1001.42 61.8301 1000.59 61 999.563 61C998.538 61 997.708 61.8301 997.708 62.8542C997.708 63.8782 998.538 64.7083 999.563 64.7083ZM1011.56 58.7083C1012.59 58.7083 1013.42 57.8782 1013.42 56.8542C1013.42 55.8301 1012.59 55 1011.56 55C1010.54 55 1009.71 55.8301 1009.71 56.8542C1009.71 57.8782 1010.54 58.7083 1011.56 58.7083ZM1040.71 61.8542C1040.71 62.8782 1039.88 63.7083 1038.85 63.7083C1037.83 63.7083 1037 62.8782 1037 61.8542C1037 60.8301 1037.83 60 1038.85 60C1039.88 60 1040.71 60.8301 1040.71 61.8542ZM1045.56 63.7083C1046.59 63.7083 1047.42 62.8782 1047.42 61.8542C1047.42 60.8301 1046.59 60 1045.56 60C1044.54 60 1043.71 60.8301 1043.71 61.8542C1043.71 62.8782 1044.54 63.7083 1045.56 63.7083ZM1019.56 51.7083C1020.59 51.7083 1021.42 50.8782 1021.42 49.8542C1021.42 48.8301 1020.59 48 1019.56 48C1018.54 48 1017.71 48.8301 1017.71 49.8542C1017.71 50.8782 1018.54 51.7083 1019.56 51.7083ZM1025.71 55.8542C1025.71 56.8782 1024.88 57.7083 1023.85 57.7083C1022.83 57.7083 1022 56.8782 1022 55.8542C1022 54.8301 1022.83 54 1023.85 54C1024.88 54 1025.71 54.8301 1025.71 55.8542ZM1030.56 57.7083C1031.59 57.7083 1032.42 56.8782 1032.42 55.8542C1032.42 54.8301 1031.59 54 1030.56 54C1029.54 54 1028.71 54.8301 1028.71 55.8542C1028.71 56.8782 1029.54 57.7083 1030.56 57.7083ZM1052.71 54.8542C1052.71 55.8782 1051.88 56.7083 1050.85 56.7083C1049.83 56.7083 1049 55.8782 1049 54.8542C1049 53.8301 1049.83 53 1050.85 53C1051.88 53 1052.71 53.8301 1052.71 54.8542ZM1057.56 56.7083C1058.59 56.7083 1059.42 55.8782 1059.42 54.8542C1059.42 53.8301 1058.59 53 1057.56 53C1056.54 53 1055.71 53.8301 1055.71 54.8542C1055.71 55.8782 1056.54 56.7083 1057.56 56.7083ZM1030.56 46.7083C1031.59 46.7083 1032.42 45.8782 1032.42 44.8542C1032.42 43.8301 1031.59 43 1030.56 43C1029.54 43 1028.71 43.8301 1028.71 44.8542C1028.71 45.8782 1029.54 46.7083 1030.56 46.7083ZM1040.71 44.8542C1040.71 45.8782 1039.88 46.7083 1038.85 46.7083C1037.83 46.7083 1037 45.8782 1037 44.8542C1037 43.8301 1037.83 43 1038.85 43C1039.88 43 1040.71 43.8301 1040.71 44.8542ZM1045.56 46.7083C1046.59 46.7083 1047.42 45.8782 1047.42 44.8542C1047.42 43.8301 1046.59 43 1045.56 43C1044.54 43 1043.71 43.8301 1043.71 44.8542C1043.71 45.8782 1044.54 46.7083 1045.56 46.7083ZM1058.71 48.8542C1058.71 49.8782 1057.88 50.7083 1056.85 50.7083C1055.83 50.7083 1055 49.8782 1055 48.8542C1055 47.8301 1055.83 47 1056.85 47C1057.88 47 1058.71 47.8301 1058.71 48.8542ZM1063.56 50.7083C1064.59 50.7083 1065.42 49.8782 1065.42 48.8542C1065.42 47.8301 1064.59 47 1063.56 47C1062.54 47 1061.71 47.8301 1061.71 48.8542C1061.71 49.8782 1062.54 50.7083 1063.56 50.7083Z" fill="url(#paint5_linear_334_53591)"/>
<path fill-rule="evenodd" clip-rule="evenodd" d="M991 30C991 31.1046 990.105 32 989 32C987.895 32 987 31.1046 987 30C987 28.8954 987.895 28 989 28C990.105 28 991 28.8954 991 30ZM983 38C984.105 38 985 37.1046 985 36C985 34.8954 984.105 34 983 34C981.895 34 981 34.8954 981 36C981 37.1046 981.895 38 983 38ZM974 42C974 43.1046 973.105 44 972 44C970.895 44 970 43.1046 970 42C970 40.8954 970.895 40 972 40C973.105 40 974 40.8954 974 42ZM961 50C962.105 50 963 49.1046 963 48C963 46.8954 962.105 46 961 46C959.895 46 959 46.8954 959 48C959 49.1046 959.895 50 961 50ZM950 56C951.105 56 952 55.1046 952 54C952 52.8954 951.105 52 950 52C948.895 52 948 52.8954 948 54C948 55.1046 948.895 56 950 56ZM922 56C923.105 56 924 55.1046 924 54C924 52.8954 923.105 52 922 52C920.895 52 920 52.8954 920 54C920 55.1046 920.895 56 922 56ZM935 48C935 49.1046 934.105 50 933 50C931.895 50 931 49.1046 931 48C931 46.8954 931.895 46 933 46C934.105 46 935 46.8954 935 48ZM944 44C945.105 44 946 43.1046 946 42C946 40.8954 945.105 40 944 40C942.895 40 942 40.8954 942 42C942 43.1046 942.895 44 944 44ZM957 36C957 37.1046 956.105 38 955 38C953.895 38 953 37.1046 953 36C953 34.8954 953.895 34 955 34C956.105 34 957 34.8954 957 36ZM961 32C962.105 32 963 31.1046 963 30C963 28.8954 962.105 28 961 28C959.895 28 959 28.8954 959 30C959 31.1046 959.895 32 961 32ZM938 54C938 55.1046 937.105 56 936 56C934.895 56 934 55.1046 934 54C934 52.8954 934.895 52 936 52C937.105 52 938 52.8954 938 54ZM947 50C948.105 50 949 49.1046 949 48C949 46.8954 948.105 46 947 46C945.895 46 945 46.8954 945 48C945 49.1046 945.895 50 947 50ZM960 42C960 43.1046 959.105 44 958 44C956.895 44 956 43.1046 956 42C956 40.8954 956.895 40 958 40C959.105 40 960 40.8954 960 42ZM969 38C970.105 38 971 37.1046 971 36C971 34.8954 970.105 34 969 34C967.895 34 967 34.8954 967 36C967 37.1046 967.895 38 969 38ZM977 30C977 31.1046 976.105 32 975 32C973.895 32 973 31.1046 973 30C973 28.8954 973.895 28 975 28C976.105 28 977 28.8954 977 30ZM964 56C965.105 56 966 55.1046 966 54C966 52.8954 965.105 52 964 52C962.895 52 962 52.8954 962 54C962 55.1046 962.895 56 964 56ZM977 48C977 49.1046 976.105 50 975 50C973.895 50 973 49.1046 973 48C973 46.8954 973.895 46 975 46C976.105 46 977 46.8954 977 48ZM957 56C958.105 56 959 55.1046 959 54C959 52.8954 958.105 52 957 52C955.895 52 955 52.8954 955 54C955 55.1046 955.895 56 957 56ZM970 48C970 49.1046 969.105 50 968 50C966.895 50 966 49.1046 966 48C966 46.8954 966.895 46 968 46C969.105 46 970 46.8954 970 48ZM979 44C980.105 44 981 43.1046 981 42C981 40.8954 980.105 40 979 40C977.895 40 977 40.8954 977 42C977 43.1046 977.895 44 979 44ZM992 36C992 37.1046 991.105 38 990 38C988.895 38 988 37.1046 988 36C988 34.8954 988.895 34 990 34C991.105 34 992 34.8954 992 36ZM996 32C997.105 32 998 31.1046 998 30C998 28.8954 997.105 28 996 28C994.895 28 994 28.8954 994 30C994 31.1046 994.895 32 996 32ZM931 54C931 55.1046 930.105 56 929 56C927.895 56 927 55.1046 927 54C927 52.8954 927.895 52 929 52C930.105 52 931 52.8954 931 54ZM940 50C941.105 50 942 49.1046 942 48C942 46.8954 941.105 46 940 46C938.895 46 938 46.8954 938 48C938 49.1046 938.895 50 940 50ZM953 42C953 43.1046 952.105 44 951 44C949.895 44 949 43.1046 949 42C949 40.8954 949.895 40 951 40C952.105 40 953 40.8954 953 42ZM962 38C963.105 38 964 37.1046 964 36C964 34.8954 963.105 34 962 34C960.895 34 960 34.8954 960 36C960 37.1046 960.895 38 962 38ZM970 30C970 31.1046 969.105 32 968 32C966.895 32 966 31.1046 966 30C966 28.8954 966.895 28 968 28C969.105 28 970 28.8954 970 30ZM943 56C944.105 56 945 55.1046 945 54C945 52.8954 944.105 52 943 52C941.895 52 941 52.8954 941 54C941 55.1046 941.895 56 943 56ZM956 48C956 49.1046 955.105 50 954 50C952.895 50 952 49.1046 952 48C952 46.8954 952.895 46 954 46C955.105 46 956 46.8954 956 48ZM965 44C966.105 44 967 43.1046 967 42C967 40.8954 966.105 40 965 40C963.895 40 963 40.8954 963 42C963 43.1046 963.895 44 965 44ZM978 36C978 37.1046 977.105 38 976 38C974.895 38 974 37.1046 974 36C974 34.8954 974.895 34 976 34C977.105 34 978 34.8954 978 36ZM982 32C983.105 32 984 31.1046 984 30C984 28.8954 983.105 28 982 28C980.895 28 980 28.8954 980 30C980 31.1046 980.895 32 982 32ZM917 54C917 55.1046 916.105 56 915 56C913.895 56 913 55.1046 913 54C913 52.8954 913.895 52 915 52C916.105 52 917 52.8954 917 54ZM926 50C927.105 50 928 49.1046 928 48C928 46.8954 927.105 46 926 46C924.895 46 924 46.8954 924 48C924 49.1046 924.895 50 926 50ZM939 42C939 43.1046 938.105 44 937 44C935.895 44 935 43.1046 935 42C935 40.8954 935.895 40 937 40C938.105 40 939 40.8954 939 42ZM948 38C949.105 38 950 37.1046 950 36C950 34.8954 949.105 34 948 34C946.895 34 946 34.8954 946 36C946 37.1046 946.895 38 948 38Z" fill="url(#paint6_linear_334_53591)"/>
<path fill-rule="evenodd" clip-rule="evenodd" d="M475 30C475 31.1046 475.895 32 477 32C478.105 32 479 31.1046 479 30C479 28.8954 478.105 28 477 28C475.895 28 475 28.8954 475 30ZM483 38C481.895 38 481 37.1046 481 36C481 34.8954 481.895 34 483 34C484.105 34 485 34.8954 485 36C485 37.1046 484.105 38 483 38ZM492 42C492 43.1046 492.895 44 494 44C495.105 44 496 43.1046 496 42C496 40.8954 495.105 40 494 40C492.895 40 492 40.8954 492 42ZM505 50C503.895 50 503 49.1046 503 48C503 46.8954 503.895 46 505 46C506.105 46 507 46.8954 507 48C507 49.1046 506.105 50 505 50ZM516 56C514.895 56 514 55.1046 514 54C514 52.8954 514.895 52 516 52C517.105 52 518 52.8954 518 54C518 55.1046 517.105 56 516 56ZM544 56C542.895 56 542 55.1046 542 54C542 52.8954 542.895 52 544 52C545.105 52 546 52.8954 546 54C546 55.1046 545.105 56 544 56ZM531 48C531 49.1046 531.895 50 533 50C534.105 50 535 49.1046 535 48C535 46.8954 534.105 46 533 46C531.895 46 531 46.8954 531 48ZM522 44C520.895 44 520 43.1046 520 42C520 40.8954 520.895 40 522 40C523.105 40 524 40.8954 524 42C524 43.1046 523.105 44 522 44ZM509 36C509 37.1046 509.895 38 511 38C512.105 38 513 37.1046 513 36C513 34.8954 512.105 34 511 34C509.895 34 509 34.8954 509 36ZM505 32C503.895 32 503 31.1046 503 30C503 28.8954 503.895 28 505 28C506.105 28 507 28.8954 507 30C507 31.1046 506.105 32 505 32ZM528 54C528 55.1046 528.895 56 530 56C531.105 56 532 55.1046 532 54C532 52.8954 531.105 52 530 52C528.895 52 528 52.8954 528 54ZM519 50C517.895 50 517 49.1046 517 48C517 46.8954 517.895 46 519 46C520.105 46 521 46.8954 521 48C521 49.1046 520.105 50 519 50ZM506 42C506 43.1046 506.895 44 508 44C509.105 44 510 43.1046 510 42C510 40.8954 509.105 40 508 40C506.895 40 506 40.8954 506 42ZM497 38C495.895 38 495 37.1046 495 36C495 34.8954 495.895 34 497 34C498.105 34 499 34.8954 499 36C499 37.1046 498.105 38 497 38ZM489 30C489 31.1046 489.895 32 491 32C492.105 32 493 31.1046 493 30C493 28.8954 492.105 28 491 28C489.895 28 489 28.8954 489 30ZM502 56C500.895 56 500 55.1046 500 54C500 52.8954 500.895 52 502 52C503.105 52 504 52.8954 504 54C504 55.1046 503.105 56 502 56ZM489 48C489 49.1046 489.895 50 491 50C492.105 50 493 49.1046 493 48C493 46.8954 492.105 46 491 46C489.895 46 489 46.8954 489 48ZM509 56C507.895 56 507 55.1046 507 54C507 52.8954 507.895 52 509 52C510.105 52 511 52.8954 511 54C511 55.1046 510.105 56 509 56ZM496 48C496 49.1046 496.895 50 498 50C499.105 50 500 49.1046 500 48C500 46.8954 499.105 46 498 46C496.895 46 496 46.8954 496 48ZM487 44C485.895 44 485 43.1046 485 42C485 40.8954 485.895 40 487 40C488.105 40 489 40.8954 489 42C489 43.1046 488.105 44 487 44ZM474 36C474 37.1046 474.895 38 476 38C477.105 38 478 37.1046 478 36C478 34.8954 477.105 34 476 34C474.895 34 474 34.8954 474 36ZM470 32C468.895 32 468 31.1046 468 30C468 28.8954 468.895 28 470 28C471.105 28 472 28.8954 472 30C472 31.1046 471.105 32 470 32ZM535 54C535 55.1046 535.895 56 537 56C538.105 56 539 55.1046 539 54C539 52.8954 538.105 52 537 52C535.895 52 535 52.8954 535 54ZM526 50C524.895 50 524 49.1046 524 48C524 46.8954 524.895 46 526 46C527.105 46 528 46.8954 528 48C528 49.1046 527.105 50 526 50ZM513 42C513 43.1046 513.895 44 515 44C516.105 44 517 43.1046 517 42C517 40.8954 516.105 40 515 40C513.895 40 513 40.8954 513 42ZM504 38C502.895 38 502 37.1046 502 36C502 34.8954 502.895 34 504 34C505.105 34 506 34.8954 506 36C506 37.1046 505.105 38 504 38ZM496 30C496 31.1046 496.895 32 498 32C499.105 32 500 31.1046 500 30C500 28.8954 499.105 28 498 28C496.895 28 496 28.8954 496 30ZM523 56C521.895 56 521 55.1046 521 54C521 52.8954 521.895 52 523 52C524.105 52 525 52.8954 525 54C525 55.1046 524.105 56 523 56ZM510 48C510 49.1046 510.895 50 512 50C513.105 50 514 49.1046 514 48C514 46.8954 513.105 46 512 46C510.895 46 510 46.8954 510 48ZM501 44C499.895 44 499 43.1046 499 42C499 40.8954 499.895 40 501 40C502.105 40 503 40.8954 503 42C503 43.1046 502.105 44 501 44ZM488 36C488 37.1046 488.895 38 490 38C491.105 38 492 37.1046 492 36C492 34.8954 491.105 34 490 34C488.895 34 488 34.8954 488 36ZM484 32C482.895 32 482 31.1046 482 30C482 28.8954 482.895 28 484 28C485.105 28 486 28.8954 486 30C486 31.1046 485.105 32 484 32ZM549 54C549 55.1046 549.895 56 551 56C552.105 56 553 55.1046 553 54C553 52.8954 552.105 52 551 52C549.895 52 549 52.8954 549 54ZM540 50C538.895 50 538 49.1046 538 48C538 46.8954 538.895 46 540 46C541.105 46 542 46.8954 542 48C542 49.1046 541.105 50 540 50ZM527 42C527 43.1046 527.895 44 529 44C530.105 44 531 43.1046 531 42C531 40.8954 530.105 40 529 40C527.895 40 527 40.8954 527 42ZM518 38C516.895 38 516 37.1046 516 36C516 34.8954 516.895 34 518 34C519.105 34 520 34.8954 520 36C520 37.1046 519.105 38 518 38Z" fill="url(#paint7_linear_334_53591)"/>
<rect x="551" width="338" height="60" fill="url(#paint8_radial_334_53591)"/>
<path d="M631.366 18.392C630.838 17.576 631.366 16.952 632.518 16.952H655.606C656.518 16.952 657.046 17.48 657.046 18.392V20.12C657.046 21.032 656.518 21.56 655.606 21.56H642.694C642.07 21.56 641.734 21.896 641.734 22.52V26.552C641.734 27.176 642.07 27.512 642.694 27.512H654.79C655.702 27.512 656.23 28.04 656.23 28.952V30.68C656.23 31.592 655.702 32.12 654.79 32.12H642.694C642.07 32.12 641.734 32.456 641.734 33.08V38.552C641.734 39.176 642.07 39.512 642.694 39.512H656.47C657.382 39.512 657.91 40.04 657.91 40.952V42.68C657.91 43.592 657.382 44.12 656.47 44.12H633.718C632.806 44.12 632.278 43.592 632.278 42.68V20.456C632.278 20.024 632.182 19.736 631.942 19.304L631.366 18.392ZM667.111 38.12C667.447 38.456 667.783 38.6 668.263 38.6H681.991C682.615 38.6 682.951 38.264 682.951 37.64V34.04C682.951 33.416 682.615 33.08 681.991 33.08H667.879C665.863 33.08 664.711 31.976 664.711 29.912V20.12C664.711 18.056 665.815 16.952 667.879 16.952H688.807C690.871 16.952 691.975 18.056 691.975 20.12V23.336C691.975 24.248 691.447 24.776 690.535 24.776H684.391C683.479 24.776 682.951 24.248 682.951 23.336V22.52C682.951 21.896 682.615 21.56 681.991 21.56H674.839C674.215 21.56 673.879 21.896 673.879 22.52V27.512C673.879 28.136 674.215 28.472 674.839 28.472H688.807C690.823 28.472 691.975 29.576 691.975 31.64V40.904C691.975 42.728 690.967 44.12 688.759 44.12H666.151C665.239 44.12 664.711 43.592 664.711 42.68V38.216C664.711 36.92 665.575 36.584 666.487 37.496L667.111 38.12ZM725.69 16.952C727.562 16.952 728.57 17.96 728.57 19.832V23.336C728.57 24.248 728.042 24.776 727.13 24.776H720.986C720.074 24.776 719.546 24.248 719.546 23.336V22.52C719.546 21.896 719.21 21.56 718.586 21.56H709.514C708.89 21.56 708.554 21.896 708.554 22.52V38.552C708.554 39.176 708.89 39.512 709.514 39.512H718.586C719.21 39.512 719.546 39.176 719.546 38.552V34.664C719.546 34.184 719.402 33.848 719.114 33.464L717.338 31.16C716.618 30.2 717.002 29.384 718.202 29.384H727.13C728.042 29.384 728.57 29.912 728.57 30.824V41.24C728.57 43.112 727.562 44.12 725.69 44.12H702.842C701.162 44.12 699.578 43.064 699.578 40.904V19.832C699.578 17.96 700.586 16.952 702.458 16.952H725.69ZM747.994 12.968C748.81 12.968 749.386 13.256 749.722 14.024L750.634 15.944C750.874 16.472 751.21 16.664 751.738 16.664H757.402C757.93 16.664 758.314 16.472 758.554 15.992C758.794 15.56 758.746 15.128 758.506 14.696C757.978 13.736 758.41 12.968 759.514 12.968H767.338C768.442 12.968 768.874 13.736 768.346 14.696L767.914 15.512C767.578 16.184 767.866 16.664 768.586 16.664H771.466C772.378 16.664 772.906 17.192 772.906 18.104V28.904C772.906 29.816 772.378 30.344 771.466 30.344H737.866C736.954 30.344 736.426 29.816 736.426 28.904V20.168C736.426 19.736 736.33 19.448 736.09 19.016L735.706 18.392C735.082 17.432 735.514 16.664 736.666 16.664H740.602C741.322 16.664 741.61 16.184 741.322 15.512L740.89 14.648C740.41 13.64 740.842 12.968 741.946 12.968H747.994ZM765.61 45.32C765.61 46.232 765.082 46.76 764.17 46.76H746.074C745.162 46.76 744.634 46.232 744.634 45.32V33.608C744.634 32.696 745.162 32.168 746.074 32.168H751.402C752.314 32.168 752.842 32.696 752.842 33.608V40.328C752.842 40.952 753.178 41.288 753.802 41.288H761.578C762.058 41.288 762.346 41.192 762.73 40.808L763.834 39.704C764.746 38.792 765.61 39.128 765.61 40.424V45.32ZM742.186 33.08C743.146 33.08 743.674 33.608 743.53 34.616L742.09 45.416C741.994 46.28 741.418 46.76 740.554 46.76H736.138C735.178 46.76 734.65 46.232 734.794 45.224L736.234 34.424C736.33 33.56 736.906 33.08 737.77 33.08H742.186ZM768.778 46.76C767.914 46.76 767.338 46.28 767.242 45.416L765.802 34.616C765.658 33.608 766.186 33.08 767.146 33.08H771.562C772.426 33.08 773.002 33.56 773.098 34.424L774.538 45.224C774.682 46.232 774.154 46.76 773.194 46.76H768.778ZM762.826 25.784C763.45 25.784 763.786 25.448 763.786 24.824V22.184C763.786 21.56 763.45 21.224 762.826 21.224H746.506C745.882 21.224 745.546 21.56 745.546 22.184V24.824C745.546 25.448 745.882 25.784 746.506 25.784H762.826ZM757.402 39.464C756.538 39.464 756.01 38.984 755.914 38.12L755.338 32.792C755.242 31.784 755.722 31.256 756.682 31.256H761.05C761.914 31.256 762.442 31.736 762.538 32.6L763.114 37.928C763.21 38.936 762.73 39.464 761.77 39.464H757.402ZM781.206 28.232C781.206 27.32 781.734 26.792 782.646 26.792H814.566C815.478 26.792 816.006 27.32 816.006 28.232V37.832C816.006 38.744 815.478 39.272 814.566 39.272H808.95C808.038 39.272 807.51 38.744 807.51 37.832V32.168C807.51 31.544 807.174 31.208 806.55 31.208H790.95C790.326 31.208 789.99 31.544 789.99 32.168V34.952C789.99 35.672 789.798 36.2 789.27 36.728L787.446 38.552C786.918 39.08 786.39 39.272 785.67 39.272H782.646C781.734 39.272 781.206 38.744 781.206 37.832V28.232ZM806.022 13.016C807.03 13.016 807.606 13.352 807.462 14.024C807.318 14.648 807.654 15.032 808.326 15.032H815.91C816.822 15.032 817.35 15.56 817.35 16.472V17.672C817.35 18.584 816.822 19.112 815.91 19.112H814.566C813.846 19.112 813.51 19.592 813.846 20.264L815.526 23.48C816.054 24.44 815.622 25.208 814.518 25.208H810.294C809.526 25.208 808.998 24.872 808.614 24.2L807.078 21.272C806.646 20.504 806.022 20.552 805.83 21.464L805.302 23.96C805.11 24.776 804.582 25.208 803.718 25.208H799.35C798.342 25.208 797.862 24.584 798.054 23.624L800.118 14.264C800.31 13.448 800.838 13.016 801.702 13.016H806.022ZM818.406 45.944C818.406 46.856 817.878 47.384 816.966 47.384H799.542C798.582 47.384 798.054 46.904 798.15 45.896L798.822 39.368C798.918 38.504 799.494 38.024 800.358 38.024H805.158C806.07 38.024 806.646 38.6 806.598 39.512L806.502 41.144C806.454 41.816 806.838 42.152 807.462 42.152H814.182C814.662 42.152 815.046 41.96 815.382 41.624L816.63 40.328C817.542 39.416 818.406 39.752 818.406 41.048V45.944ZM794.166 33.128C794.694 32.6 795.222 32.36 795.942 32.36H801.318C802.566 32.36 802.95 33.224 802.086 34.136L790.23 46.568C789.75 47.096 789.174 47.336 788.454 47.336H782.694C781.446 47.336 781.014 46.472 781.926 45.56L794.166 33.128ZM789.126 14.456C789.126 13.544 789.654 13.016 790.566 13.016H795.174C796.086 13.016 796.614 13.544 796.614 14.456V24.296C796.614 25.208 796.086 25.736 795.174 25.736H790.566C789.654 25.736 789.126 25.208 789.126 24.296V14.456ZM782.262 24.968C781.35 24.968 780.822 24.44 780.822 23.528V17.144C780.822 16.712 780.774 16.376 780.534 15.944L780.39 15.752C779.814 14.792 780.198 14.024 781.35 14.024H786.006C786.918 14.024 787.446 14.552 787.446 15.464V23.528C787.446 24.44 786.918 24.968 786.006 24.968H782.262Z" fill="url(#paint9_linear_334_53591)"/>
<path opacity="0.59" d="M505.5 60.5H500.539C487.824 60.5 475.749 54.9262 467.5 45.25V45.25C459.251 35.5738 447.176 30 434.461 30H412.035C393.138 30 374.699 24.1806 359.225 13.3329L334.5 -4" stroke="url(#paint10_linear_334_53591)" stroke-width="2"/>
<path opacity="0.42" d="M499 60.5H495.591C481.81 60.5 468.637 54.822 459.175 44.8028V44.8028C452.38 37.6082 442.851 33.6353 432.958 33.8723L414.317 34.3188C382.94 35.0703 352.732 22.4032 331.276 -0.502884L328 -4" stroke="url(#paint11_linear_334_53591)" stroke-width="2"/>
<path opacity="0.59" d="M956 60.5H960.961C973.676 60.5 985.751 54.9262 994 45.25V45.25C1002.25 35.5738 1014.32 30 1027.04 30H1049.46C1068.36 30 1086.8 24.1806 1102.28 13.3329L1127 -4" stroke="url(#paint12_linear_334_53591)" stroke-width="2"/>
<path opacity="0.42" d="M962.5 60.5H965.909C979.69 60.5 992.863 54.822 1002.33 44.8028V44.8028C1009.12 37.6082 1018.65 33.6353 1028.54 33.8723L1047.18 34.3188C1078.56 35.0703 1108.77 22.4032 1130.22 -0.502884L1133.5 -4" stroke="url(#paint13_linear_334_53591)" stroke-width="2"/>
<g filter="url(#filter1_b_334_53591)">
<path d="M354 -1L355.028 0.0572528C371.153 16.6427 393.301 26 416.433 26H436.375C450.179 26 463.213 32.3642 471.703 43.25L472.336 44.0626C480.426 54.4356 492.846 60.5 506 60.5V60.5" stroke="url(#paint14_linear_334_53591)" stroke-width="2"/>
</g>
<g filter="url(#filter2_b_334_53591)">
<path d="M441.5 21.5H499.662C513.461 21.5 526.834 26.2748 537.513 35.0138L552.524 47.2983C562.955 55.8355 576.02 60.5 589.5 60.5V60.5" stroke="url(#paint15_linear_334_53591)" stroke-width="2"/>
</g>
<g filter="url(#filter3_b_334_53591)">
<path d="M1024 21.5H965.838C952.039 21.5 938.666 26.2748 927.987 35.0138L912.976 47.2983C902.545 55.8355 889.48 60.5 876 60.5V60.5" stroke="url(#paint16_linear_334_53591)" stroke-width="2"/>
</g>
<g filter="url(#filter4_b_334_53591)">
<path d="M1108 -1L1106.97 0.0572528C1090.85 16.6427 1068.7 26 1045.57 26H1025.63C1011.82 26 998.787 32.3642 990.297 43.25L989.664 44.0626C981.574 54.4356 969.154 60.5 956 60.5V60.5" stroke="url(#paint17_linear_334_53591)" stroke-width="2"/>
</g>
<defs>
<filter id="filter0_b_334_53591" x="298.586" y="-12" width="867.828" height="83.5" filterUnits="userSpaceOnUse" color-interpolation-filters="sRGB">
<feFlood flood-opacity="0" result="BackgroundImageFix"/>
<feGaussianBlur in="BackgroundImageFix" stdDeviation="5"/>
<feComposite in2="SourceAlpha" operator="in" result="effect1_backgroundBlur_334_53591"/>
<feBlend mode="normal" in="SourceGraphic" in2="effect1_backgroundBlur_334_53591" result="shape"/>
</filter>
<filter id="filter1_b_334_53591" x="349.283" y="-5.69727" width="160.717" height="71.1973" filterUnits="userSpaceOnUse" color-interpolation-filters="sRGB">
<feFlood flood-opacity="0" result="BackgroundImageFix"/>
<feGaussianBlur in="BackgroundImageFix" stdDeviation="2"/>
<feComposite in2="SourceAlpha" operator="in" result="effect1_backgroundBlur_334_53591"/>
<feBlend mode="normal" in="SourceGraphic" in2="effect1_backgroundBlur_334_53591" result="shape"/>
</filter>
<filter id="filter2_b_334_53591" x="437.5" y="16.5" width="156" height="49" filterUnits="userSpaceOnUse" color-interpolation-filters="sRGB">
<feFlood flood-opacity="0" result="BackgroundImageFix"/>
<feGaussianBlur in="BackgroundImageFix" stdDeviation="2"/>
<feComposite in2="SourceAlpha" operator="in" result="effect1_backgroundBlur_334_53591"/>
<feBlend mode="normal" in="SourceGraphic" in2="effect1_backgroundBlur_334_53591" result="shape"/>
</filter>
<filter id="filter3_b_334_53591" x="872" y="16.5" width="156" height="49" filterUnits="userSpaceOnUse" color-interpolation-filters="sRGB">
<feFlood flood-opacity="0" result="BackgroundImageFix"/>
<feGaussianBlur in="BackgroundImageFix" stdDeviation="2"/>
<feComposite in2="SourceAlpha" operator="in" result="effect1_backgroundBlur_334_53591"/>
<feBlend mode="normal" in="SourceGraphic" in2="effect1_backgroundBlur_334_53591" result="shape"/>
</filter>
<filter id="filter4_b_334_53591" x="952" y="-5.69727" width="160.717" height="71.1973" filterUnits="userSpaceOnUse" color-interpolation-filters="sRGB">
<feFlood flood-opacity="0" result="BackgroundImageFix"/>
<feGaussianBlur in="BackgroundImageFix" stdDeviation="2"/>
<feComposite in2="SourceAlpha" operator="in" result="effect1_backgroundBlur_334_53591"/>
<feBlend mode="normal" in="SourceGraphic" in2="effect1_backgroundBlur_334_53591" result="shape"/>
</filter>
<linearGradient id="paint0_linear_334_53591" x1="603.5" y1="-1" x2="603.5" y2="61" gradientUnits="userSpaceOnUse">
<stop stop-color="#004681" stop-opacity="0"/>
<stop offset="1" stop-color="#00A0E9"/>
</linearGradient>
<radialGradient id="paint1_radial_334_53591" cx="0" cy="0" r="1" gradientUnits="userSpaceOnUse" gradientTransform="translate(732 61) scale(591.5 155.39)">
<stop stop-color="white" stop-opacity="0.47"/>
<stop offset="1" stop-color="#00A0E9" stop-opacity="0"/>
</radialGradient>
<linearGradient id="paint2_linear_334_53591" x1="603.5" y1="-1" x2="603.5" y2="61" gradientUnits="userSpaceOnUse">
<stop stop-color="#004681" stop-opacity="0"/>
<stop offset="1" stop-color="#00A0E9"/>
</linearGradient>
<radialGradient id="paint3_radial_334_53591" cx="0" cy="0" r="1" gradientUnits="userSpaceOnUse" gradientTransform="translate(643.5 60.0003) rotate(90) scale(5.83333 174.784)">
<stop stop-color="#005D91"/>
<stop offset="1" stop-color="white" stop-opacity="0"/>
</radialGradient>
<radialGradient id="paint4_radial_334_53591" cx="0" cy="0" r="1" gradientUnits="userSpaceOnUse" gradientTransform="translate(661 60) rotate(90) scale(6 140.884)">
<stop stop-color="#00FFF0"/>
<stop offset="0.365" stop-color="#09EBDD" stop-opacity="0"/>
<stop offset="1" stop-color="#11D7CB" stop-opacity="0"/>
</radialGradient>
<linearGradient id="paint5_linear_334_53591" x1="1007.46" y1="67.3699" x2="1059.95" y2="50.4903" gradientUnits="userSpaceOnUse">
<stop stop-color="#00A0E9"/>
<stop offset="1" stop-color="#00A0E9" stop-opacity="0.1"/>
</linearGradient>
<linearGradient id="paint6_linear_334_53591" x1="915" y1="53.5" x2="954.215" y2="4.96851" gradientUnits="userSpaceOnUse">
<stop stop-color="#00A0E9"/>
<stop offset="1" stop-color="#00A0E9" stop-opacity="0.1"/>
</linearGradient>
<linearGradient id="paint7_linear_334_53591" x1="551" y1="53.5" x2="511.785" y2="4.96851" gradientUnits="userSpaceOnUse">
<stop stop-color="#00A0E9"/>
<stop offset="1" stop-color="#00A0E9" stop-opacity="0.1"/>
</linearGradient>
<radialGradient id="paint8_radial_334_53591" cx="0" cy="0" r="1" gradientUnits="userSpaceOnUse" gradientTransform="translate(720 60) scale(197 48.2282)">
<stop stop-color="#00A0E9"/>
<stop offset="1" stop-color="white" stop-opacity="0"/>
</radialGradient>
<linearGradient id="paint9_linear_334_53591" x1="681.75" y1="10.5" x2="681.75" y2="50.5" gradientUnits="userSpaceOnUse">
<stop stop-color="#64C1ED"/>
<stop offset="1" stop-color="#205D91"/>
</linearGradient>
<linearGradient id="paint10_linear_334_53591" x1="503.5" y1="61" x2="309" y2="-6.99999" gradientUnits="userSpaceOnUse">
<stop offset="0.255" stop-color="#01A1EA"/>
<stop offset="1" stop-color="white" stop-opacity="0"/>
</linearGradient>
<linearGradient id="paint11_linear_334_53591" x1="497" y1="61" x2="302.5" y2="-6.99999" gradientUnits="userSpaceOnUse">
<stop offset="0.255" stop-color="#01A1EA"/>
<stop offset="1" stop-color="white" stop-opacity="0"/>
</linearGradient>
<linearGradient id="paint12_linear_334_53591" x1="958" y1="61" x2="1152.5" y2="-6.99999" gradientUnits="userSpaceOnUse">
<stop offset="0.255" stop-color="#01A1EA"/>
<stop offset="1" stop-color="white" stop-opacity="0"/>
</linearGradient>
<linearGradient id="paint13_linear_334_53591" x1="964.5" y1="61" x2="1159" y2="-6.99999" gradientUnits="userSpaceOnUse">
<stop offset="0.255" stop-color="#01A1EA"/>
<stop offset="1" stop-color="white" stop-opacity="0"/>
</linearGradient>
<linearGradient id="paint14_linear_334_53591" x1="357.5" y1="-1" x2="505" y2="60" gradientUnits="userSpaceOnUse">
<stop stop-color="#004681" stop-opacity="0"/>
<stop offset="1" stop-color="#00A0E9"/>
</linearGradient>
<linearGradient id="paint15_linear_334_53591" x1="502.5" y1="15" x2="576.5" y2="59.5" gradientUnits="userSpaceOnUse">
<stop stop-color="#004681" stop-opacity="0"/>
<stop offset="0.54" stop-color="#00A0E9"/>
<stop offset="1" stop-color="#00A0E9" stop-opacity="0"/>
</linearGradient>
<linearGradient id="paint16_linear_334_53591" x1="963" y1="15" x2="889" y2="59.5" gradientUnits="userSpaceOnUse">
<stop stop-color="#004681" stop-opacity="0"/>
<stop offset="0.54" stop-color="#00A0E9"/>
<stop offset="1" stop-color="#00A0E9" stop-opacity="0"/>
</linearGradient>
<linearGradient id="paint17_linear_334_53591" x1="1104.5" y1="-1" x2="957" y2="60" gradientUnits="userSpaceOnUse">
<stop stop-color="#004681" stop-opacity="0"/>
<stop offset="1" stop-color="#00A0E9"/>
</linearGradient>
</defs>
</svg>
