<svg width="32" height="32" viewBox="0 0 32 32" fill="none" xmlns="http://www.w3.org/2000/svg">
<g clip-path="url(#clip0_1511_15466)">
<path d="M31.0303 0.96875H0.969727V31.0294H31.0303V0.96875Z" fill="#00302F"/>
<mask id="mask0_1511_15466" style="mask-type:luminance" maskUnits="userSpaceOnUse" x="4" y="4" width="24" height="24">
<path d="M27.636 4.36328H4.36328V27.636H27.636V4.36328Z" fill="white"/>
</mask>
<g mask="url(#mask0_1511_15466)">
<path d="M14.4476 10.5703H13.6719V11.3461H14.4476V10.5703Z" fill="black"/>
<path d="M14.4476 16.7773H13.6719V17.5531H14.4476V16.7773Z" fill="#005856"/>
<path d="M14.4476 7.46875H13.6719V8.24451H14.4476V7.46875Z" fill="black"/>
<path d="M14.4476 13.6738H13.6719V14.4496H14.4476V13.6738Z" fill="black"/>
<path d="M14.4476 19.8789H13.6719V20.6547H14.4476V19.8789Z" fill="black"/>
<path d="M14.4476 23.7578H13.6719V24.5336H14.4476V23.7578Z" fill="black"/>
<path d="M14.4476 5.91797H13.6719V6.69373H14.4476V5.91797Z" fill="black"/>
<path d="M14.4476 12.1211H13.6719V12.8969H14.4476V12.1211Z" fill="black"/>
<path d="M14.4476 18.3281H13.6719V19.1039H14.4476V18.3281Z" fill="black"/>
<path d="M14.4476 9.01953H13.6719V9.79531H14.4476V9.01953Z" fill="black"/>
<path d="M14.4476 15.2266H13.6719V16.0023H14.4476V15.2266Z" fill="#36F8EE"/>
<path d="M14.4476 21.4316H13.6719V22.2074H14.4476V21.4316Z" fill="black"/>
<path d="M14.4476 25.3105H13.6719V26.0863H14.4476V25.3105Z" fill="#36F8EE"/>
<path d="M14.4476 11.3477H13.6719V12.1234H14.4476V11.3477Z" fill="black"/>
<path d="M14.4476 17.5527H13.6719V18.3285H14.4476V17.5527Z" fill="#005856"/>
<path d="M14.4476 8.24219H13.6719V9.01795H14.4476V8.24219Z" fill="black"/>
<path d="M14.4476 14.4492H13.6719V15.225H14.4476V14.4492Z" fill="#36F8EE"/>
<path d="M14.4476 20.6562H13.6719V21.432H14.4476V20.6562Z" fill="black"/>
<path d="M14.4476 24.5352H13.6719V25.3109H14.4476V24.5352Z" fill="#005856"/>
<path d="M14.4476 6.69141H13.6719V7.46716H14.4476V6.69141Z" fill="black"/>
<path d="M14.4476 12.8984H13.6719V13.6742H14.4476V12.8984Z" fill="black"/>
<path d="M14.4476 19.1055H13.6719V19.8812H14.4476V19.1055Z" fill="black"/>
<path d="M14.4476 22.9844H13.6719V23.7601H14.4476V22.9844Z" fill="#005856"/>
<path d="M14.4476 9.79688H13.6719V10.5726H14.4476V9.79688Z" fill="#36F8EE"/>
<path d="M14.4476 16H13.6719V16.7758H14.4476V16Z" fill="#36F8EE"/>
<path d="M14.4476 22.207H13.6719V22.9828H14.4476V22.207Z" fill="#005856"/>
<path d="M14.4476 26.0859H13.6719V26.8617H14.4476V26.0859Z" fill="black"/>
<path d="M9.79334 10.5703H9.01758V11.3461H9.79334V10.5703Z" fill="black"/>
<path d="M9.79334 16.7773H9.01758V17.5531H9.79334V16.7773Z" fill="black"/>
<path d="M9.79334 7.46875H9.01758V8.24451H9.79334V7.46875Z" fill="#36F8EE"/>
<path d="M9.79334 13.6738H9.01758V14.4496H9.79334V13.6738Z" fill="black"/>
<path d="M9.79334 19.8789H9.01758V20.6547H9.79334V19.8789Z" fill="#005856"/>
<path d="M9.79334 23.7578H9.01758V24.5336H9.79334V23.7578Z" fill="#36F8EE"/>
<path d="M9.79334 12.1211H9.01758V12.8969H9.79334V12.1211Z" fill="black"/>
<path d="M9.79334 18.3281H9.01758V19.1039H9.79334V18.3281Z" fill="#36F8EE"/>
<path d="M9.79334 9.01953H9.01758V9.79531H9.79334V9.01953Z" fill="#36F8EE"/>
<path d="M9.79334 15.2266H9.01758V16.0023H9.79334V15.2266Z" fill="black"/>
<path d="M9.79334 21.4316H9.01758V22.2074H9.79334V21.4316Z" fill="black"/>
<path d="M9.79334 25.3105H9.01758V26.0863H9.79334V25.3105Z" fill="black"/>
<path d="M9.79334 11.3477H9.01758V12.1234H9.79334V11.3477Z" fill="black"/>
<path d="M9.79334 17.5527H9.01758V18.3285H9.79334V17.5527Z" fill="#36F8EE"/>
<path d="M9.79334 8.24219H9.01758V9.01795H9.79334V8.24219Z" fill="#36F8EE"/>
<path d="M9.79334 14.4492H9.01758V15.225H9.79334V14.4492Z" fill="black"/>
<path d="M9.79334 20.6562H9.01758V21.432H9.79334V20.6562Z" fill="#005856"/>
<path d="M9.79334 24.5352H9.01758V25.3109H9.79334V24.5352Z" fill="#36F8EE"/>
<path d="M9.79334 6.69141H9.01758V7.46716H9.79334V6.69141Z" fill="black"/>
<path d="M9.79334 12.8984H9.01758V13.6742H9.79334V12.8984Z" fill="black"/>
<path d="M9.79334 19.1055H9.01758V19.8812H9.79334V19.1055Z" fill="#005856"/>
<path d="M9.79334 22.9844H9.01758V23.7601H9.79334V22.9844Z" fill="#005856"/>
<path d="M9.79334 9.79688H9.01758V10.5726H9.79334V9.79688Z" fill="black"/>
<path d="M9.79334 16H9.01758V16.7758H9.79334V16Z" fill="black"/>
<path d="M9.79334 22.207H9.01758V22.9828H9.79334V22.207Z" fill="#005856"/>
<path d="M12.8969 10.5703H12.1211V11.3461H12.8969V10.5703Z" fill="black"/>
<path d="M12.8969 16.7773H12.1211V17.5531H12.8969V16.7773Z" fill="#005856"/>
<path d="M12.8969 7.46875H12.1211V8.24451H12.8969V7.46875Z" fill="#006D76" fill-opacity="0.3"/>
<path d="M12.8969 13.6738H12.1211V14.4496H12.8969V13.6738Z" fill="black"/>
<path d="M12.8969 19.8789H12.1211V20.6547H12.8969V19.8789Z" fill="black"/>
<path d="M12.8969 23.7578H12.1211V24.5336H12.8969V23.7578Z" fill="#005856"/>
<path d="M12.8969 12.1211H12.1211V12.8969H12.8969V12.1211Z" fill="black"/>
<path d="M12.8969 18.3281H12.1211V19.1039H12.8969V18.3281Z" fill="#005856"/>
<path d="M12.8969 9.01953H12.1211V9.79531H12.8969V9.01953Z" fill="black"/>
<path d="M12.8969 15.2266H12.1211V16.0023H12.8969V15.2266Z" fill="#006D76" fill-opacity="0.3"/>
<path d="M12.8969 21.4316H12.1211V22.2074H12.8969V21.4316Z" fill="#005856"/>
<path d="M12.8969 25.3105H12.1211V26.0863H12.8969V25.3105Z" fill="#36F8EE"/>
<path d="M12.8969 11.3477H12.1211V12.1234H12.8969V11.3477Z" fill="black"/>
<path d="M12.8969 17.5527H12.1211V18.3285H12.8969V17.5527Z" fill="#005856"/>
<path d="M12.8969 8.24219H12.1211V9.01795H12.8969V8.24219Z" fill="#006D76" fill-opacity="0.3"/>
<path d="M12.8969 14.4492H12.1211V15.225H12.8969V14.4492Z" fill="#36F8EE"/>
<path d="M12.8969 20.6562H12.1211V21.432H12.8969V20.6562Z" fill="black"/>
<path d="M12.8969 24.5352H12.1211V25.3109H12.8969V24.5352Z" fill="#36F8EE"/>
<path d="M12.8969 6.69141H12.1211V7.46716H12.8969V6.69141Z" fill="black"/>
<path d="M12.8969 12.8984H12.1211V13.6742H12.8969V12.8984Z" fill="black"/>
<path d="M12.8969 19.1055H12.1211V19.8812H12.8969V19.1055Z" fill="black"/>
<path d="M12.8969 22.9844H12.1211V23.7601H12.8969V22.9844Z" fill="black"/>
<path d="M12.8969 9.79688H12.1211V10.5726H12.8969V9.79688Z" fill="#36F8EE"/>
<path d="M12.8969 16H12.1211V16.7758H12.8969V16Z" fill="#36F8EE"/>
<path d="M12.8969 22.207H12.1211V22.9828H12.8969V22.207Z" fill="#005856"/>
<path d="M12.8969 26.0859H12.1211V26.8617H12.8969V26.0859Z" fill="black"/>
<path d="M8.24255 10.5703H7.4668V11.3461H8.24255V10.5703Z" fill="black"/>
<path d="M8.24255 16.7773H7.4668V17.5531H8.24255V16.7773Z" fill="black"/>
<path d="M8.24255 7.46875H7.4668V8.24451H8.24255V7.46875Z" fill="#36F8EE"/>
<path d="M8.24255 19.8789H7.4668V20.6547H8.24255V19.8789Z" fill="#36F8EE"/>
<path d="M8.24255 23.7578H7.4668V24.5336H8.24255V23.7578Z" fill="black"/>
<path d="M8.24255 5.91797H7.4668V6.69373H8.24255V5.91797Z" fill="black"/>
<path d="M8.24255 12.1211H7.4668V12.8969H8.24255V12.1211Z" fill="black"/>
<path d="M8.24255 18.3281H7.4668V19.1039H8.24255V18.3281Z" fill="#36F8EE"/>
<path d="M8.24255 9.01953H7.4668V9.79531H8.24255V9.01953Z" fill="#36F8EE"/>
<path d="M8.24255 21.4316H7.4668V22.2074H8.24255V21.4316Z" fill="#36F8EE"/>
<path d="M8.24255 11.3477H7.4668V12.1234H8.24255V11.3477Z" fill="black"/>
<path d="M8.24255 17.5527H7.4668V18.3285H8.24255V17.5527Z" fill="black"/>
<path d="M8.24255 8.24219H7.4668V9.01795H8.24255V8.24219Z" fill="#36F8EE"/>
<path d="M8.24255 20.6562H7.4668V21.432H8.24255V20.6562Z" fill="#36F8EE"/>
<path d="M8.24255 24.5352H7.4668V25.3109H8.24255V24.5352Z" fill="black"/>
<path d="M8.24255 6.69141H7.4668V7.46716H8.24255V6.69141Z" fill="black"/>
<path d="M8.24255 19.1055H7.4668V19.8812H8.24255V19.1055Z" fill="#36F8EE"/>
<path d="M8.24255 22.9844H7.4668V23.7601H8.24255V22.9844Z" fill="#36F8EE"/>
<path d="M8.24255 9.79688H7.4668V10.5726H8.24255V9.79688Z" fill="#36F8EE"/>
<path d="M8.24255 22.207H7.4668V22.9828H8.24255V22.207Z" fill="#36F8EE"/>
<path d="M5.91444 7.46875H5.13867V8.24451H5.91444V7.46875Z" fill="black"/>
<path d="M5.91444 9.01953H5.13867V9.79531H5.91444V9.01953Z" fill="black"/>
<path d="M5.91444 8.24219H5.13867V9.01795H5.91444V8.24219Z" fill="black"/>
<path d="M5.91444 6.69141H5.13867V7.46716H5.91444V6.69141Z" fill="black"/>
<path d="M15.9994 10.5703H15.2236V11.3461H15.9994V10.5703Z" fill="#36F8EE"/>
<path d="M15.9994 16.7773H15.2236V17.5531H15.9994V16.7773Z" fill="#005856"/>
<path d="M15.9994 7.46875H15.2236V8.24451H15.9994V7.46875Z" fill="black"/>
<path d="M15.9994 13.6738H15.2236V14.4496H15.9994V13.6738Z" fill="#36F8EE"/>
<path d="M15.9994 19.8789H15.2236V20.6547H15.9994V19.8789Z" fill="#005856"/>
<path d="M15.9994 23.7578H15.2236V24.5336H15.9994V23.7578Z" fill="black"/>
<path d="M15.9994 5.91797H15.2236V6.69373H15.9994V5.91797Z" fill="black"/>
<path d="M15.9994 12.1211H15.2236V12.8969H15.9994V12.1211Z" fill="#36F8EE"/>
<path d="M15.9994 18.3281H15.2236V19.1039H15.9994V18.3281Z" fill="#005856"/>
<path d="M15.9994 9.01953H15.2236V9.79531H15.9994V9.01953Z" fill="#36F8EE"/>
<path d="M15.9994 15.2266H15.2236V16.0023H15.9994V15.2266Z" fill="#36F8EE"/>
<path d="M15.9994 21.4316H15.2236V22.2074H15.9994V21.4316Z" fill="#005856"/>
<path d="M15.9994 25.3105H15.2236V26.0863H15.9994V25.3105Z" fill="#36F8EE"/>
<path d="M15.9994 5.14062H15.2236V5.91638H15.9994V5.14062Z" fill="black"/>
<path d="M15.9994 11.3477H15.2236V12.1234H15.9994V11.3477Z" fill="#36F8EE"/>
<path d="M15.9994 17.5527H15.2236V18.3285H15.9994V17.5527Z" fill="#005856"/>
<path d="M15.9994 8.24219H15.2236V9.01795H15.9994V8.24219Z" fill="#36F8EE"/>
<path d="M15.9994 14.4492H15.2236V15.225H15.9994V14.4492Z" fill="#36F8EE"/>
<path d="M15.9994 20.6562H15.2236V21.432H15.9994V20.6562Z" fill="#005856"/>
<path d="M15.9994 24.5352H15.2236V25.3109H15.9994V24.5352Z" fill="#005856"/>
<path d="M15.9994 6.69141H15.2236V7.46716H15.9994V6.69141Z" fill="black"/>
<path d="M15.9994 12.8984H15.2236V13.6742H15.9994V12.8984Z" fill="#36F8EE"/>
<path d="M15.9994 19.1055H15.2236V19.8812H15.9994V19.1055Z" fill="#005856"/>
<path d="M15.9994 22.9844H15.2236V23.7601H15.9994V22.9844Z" fill="#005856"/>
<path d="M15.9994 9.79688H15.2236V10.5726H15.9994V9.79688Z" fill="#36F8EE"/>
<path d="M15.9994 16H15.2236V16.7758H15.9994V16Z" fill="#36F8EE"/>
<path d="M15.9994 22.207H15.2236V22.9828H15.9994V22.207Z" fill="#005856"/>
<path d="M15.9994 26.0859H15.2236V26.8617H15.9994V26.0859Z" fill="black"/>
<path d="M11.3451 10.5703H10.5693V11.3461H11.3451V10.5703Z" fill="#006D76" fill-opacity="0.3"/>
<path d="M11.3451 16.7773H10.5693V17.5531H11.3451V16.7773Z" fill="#36F8EE"/>
<path d="M11.3451 7.46875H10.5693V8.24451H11.3451V7.46875Z" fill="black"/>
<path d="M11.3451 13.6738H10.5693V14.4496H11.3451V13.6738Z" fill="#006D76" fill-opacity="0.3"/>
<path d="M11.3451 19.8789H10.5693V20.6547H11.3451V19.8789Z" fill="#005856"/>
<path d="M11.3451 23.7578H10.5693V24.5336H11.3451V23.7578Z" fill="#36F8EE"/>
<path d="M11.3451 12.1211H10.5693V12.8969H11.3451V12.1211Z" fill="#006D76" fill-opacity="0.3"/>
<path d="M11.3451 18.3281H10.5693V19.1039H11.3451V18.3281Z" fill="#005856"/>
<path d="M11.3451 9.01953H10.5693V9.79531H11.3451V9.01953Z" fill="#006D76" fill-opacity="0.3"/>
<path d="M11.3451 15.2266H10.5693V16.0023H11.3451V15.2266Z" fill="black"/>
<path d="M11.3451 21.4316H10.5693V22.2074H11.3451V21.4316Z" fill="#005856"/>
<path d="M11.3451 25.3105H10.5693V26.0863H11.3451V25.3105Z" fill="black"/>
<path d="M11.3451 11.3477H10.5693V12.1234H11.3451V11.3477Z" fill="#006D76" fill-opacity="0.3"/>
<path d="M11.3451 17.5527H10.5693V18.3285H11.3451V17.5527Z" fill="#005856"/>
<path d="M11.3451 8.24219H10.5693V9.01795H11.3451V8.24219Z" fill="#006D76" fill-opacity="0.3"/>
<path d="M11.3451 14.4492H10.5693V15.225H11.3451V14.4492Z" fill="#006D76" fill-opacity="0.3"/>
<path d="M11.3451 20.6562H10.5693V21.432H11.3451V20.6562Z" fill="#005856"/>
<path d="M11.3451 24.5352H10.5693V25.3109H11.3451V24.5352Z" fill="#36F8EE"/>
<path d="M11.3451 12.8984H10.5693V13.6742H11.3451V12.8984Z" fill="#006D76" fill-opacity="0.3"/>
<path d="M11.3451 19.1055H10.5693V19.8812H11.3451V19.1055Z" fill="#005856"/>
<path d="M11.3451 22.9844H10.5693V23.7601H11.3451V22.9844Z" fill="#005856"/>
<path d="M11.3451 9.79688H10.5693V10.5726H11.3451V9.79688Z" fill="#006D76" fill-opacity="0.3"/>
<path d="M11.3451 16H10.5693V16.7758H11.3451V16Z" fill="black"/>
<path d="M11.3451 22.207H10.5693V22.9828H11.3451V22.207Z" fill="black"/>
<path d="M12.1205 10.5703H11.3447V11.3461H12.1205V10.5703Z" fill="#36F8EE"/>
<path d="M12.1205 16.7773H11.3447V17.5531H12.1205V16.7773Z" fill="#005856"/>
<path d="M12.1205 7.46875H11.3447V8.24451H12.1205V7.46875Z" fill="black"/>
<path d="M12.1205 13.6738H11.3447V14.4496H12.1205V13.6738Z" fill="#36F8EE"/>
<path d="M12.1205 19.8789H11.3447V20.6547H12.1205V19.8789Z" fill="black"/>
<path d="M12.1205 23.7578H11.3447V24.5336H12.1205V23.7578Z" fill="#005856"/>
<path d="M12.1205 12.1211H11.3447V12.8969H12.1205V12.1211Z" fill="#36F8EE"/>
<path d="M12.1205 18.3281H11.3447V19.1039H12.1205V18.3281Z" fill="#005856"/>
<path d="M12.1205 9.01953H11.3447V9.79531H12.1205V9.01953Z" fill="#006D76" fill-opacity="0.3"/>
<path d="M12.1205 15.2266H11.3447V16.0023H12.1205V15.2266Z" fill="#006D76" fill-opacity="0.3"/>
<path d="M12.1205 21.4316H11.3447V22.2074H12.1205V21.4316Z" fill="#005856"/>
<path d="M12.1205 25.3105H11.3447V26.0863H12.1205V25.3105Z" fill="#36F8EE"/>
<path d="M12.1205 11.3477H11.3447V12.1234H12.1205V11.3477Z" fill="#36F8EE"/>
<path d="M12.1205 17.5527H11.3447V18.3285H12.1205V17.5527Z" fill="#005856"/>
<path d="M12.1205 8.24219H11.3447V9.01795H12.1205V8.24219Z" fill="#006D76" fill-opacity="0.3"/>
<path d="M12.1205 14.4492H11.3447V15.225H12.1205V14.4492Z" fill="#36F8EE"/>
<path d="M12.1205 20.6562H11.3447V21.432H12.1205V20.6562Z" fill="black"/>
<path d="M12.1205 24.5352H11.3447V25.3109H12.1205V24.5352Z" fill="#36F8EE"/>
<path d="M12.1205 12.8984H11.3447V13.6742H12.1205V12.8984Z" fill="#36F8EE"/>
<path d="M12.1205 19.1055H11.3447V19.8812H12.1205V19.1055Z" fill="#005856"/>
<path d="M12.1205 22.9844H11.3447V23.7601H12.1205V22.9844Z" fill="black"/>
<path d="M12.1205 9.79688H11.3447V10.5726H12.1205V9.79688Z" fill="#36F8EE"/>
<path d="M12.1205 16H11.3447V16.7758H12.1205V16Z" fill="black"/>
<path d="M12.1205 22.207H11.3447V22.9828H12.1205V22.207Z" fill="#005856"/>
<path d="M12.1205 26.0859H11.3447V26.8617H12.1205V26.0859Z" fill="black"/>
<path d="M7.46628 10.5703H6.69043V11.3461H7.46628V10.5703Z" fill="black"/>
<path d="M7.46628 7.46875H6.69043V8.24451H7.46628V7.46875Z" fill="#36F8EE"/>
<path d="M7.46628 19.8789H6.69043V20.6547H7.46628V19.8789Z" fill="#36F8EE"/>
<path d="M7.46628 5.91797H6.69043V6.69373H7.46628V5.91797Z" fill="black"/>
<path d="M7.46628 18.3281H6.69043V19.1039H7.46628V18.3281Z" fill="black"/>
<path d="M7.46628 9.01953H6.69043V9.79531H7.46628V9.01953Z" fill="#36F8EE"/>
<path d="M7.46628 21.4316H6.69043V22.2074H7.46628V21.4316Z" fill="#36F8EE"/>
<path d="M7.46628 17.5527H6.69043V18.3285H7.46628V17.5527Z" fill="black"/>
<path d="M7.46628 8.24219H6.69043V9.01795H7.46628V8.24219Z" fill="#36F8EE"/>
<path d="M7.46628 20.6562H6.69043V21.432H7.46628V20.6562Z" fill="#36F8EE"/>
<path d="M7.46628 6.69141H6.69043V7.46716H7.46628V6.69141Z" fill="#36F8EE"/>
<path d="M7.46628 19.1055H6.69043V19.8812H7.46628V19.1055Z" fill="#36F8EE"/>
<path d="M7.46628 22.9844H6.69043V23.7601H7.46628V22.9844Z" fill="black"/>
<path d="M7.46628 9.79688H6.69043V10.5726H7.46628V9.79688Z" fill="black"/>
<path d="M7.46628 22.207H6.69043V22.9828H7.46628V22.207Z" fill="#36F8EE"/>
<path d="M15.224 10.5703H14.4482V11.3461H15.224V10.5703Z" fill="#36F8EE"/>
<path d="M15.224 16.7773H14.4482V17.5531H15.224V16.7773Z" fill="#005856"/>
<path d="M15.224 7.46875H14.4482V8.24451H15.224V7.46875Z" fill="black"/>
<path d="M15.224 13.6738H14.4482V14.4496H15.224V13.6738Z" fill="#36F8EE"/>
<path d="M15.224 19.8789H14.4482V20.6547H15.224V19.8789Z" fill="black"/>
<path d="M15.224 23.7578H14.4482V24.5336H15.224V23.7578Z" fill="black"/>
<path d="M15.224 5.91797H14.4482V6.69373H15.224V5.91797Z" fill="black"/>
<path d="M15.224 12.1211H14.4482V12.8969H15.224V12.1211Z" fill="#36F8EE"/>
<path d="M15.224 18.3281H14.4482V19.1039H15.224V18.3281Z" fill="black"/>
<path d="M15.224 9.01953H14.4482V9.79531H15.224V9.01953Z" fill="#36F8EE"/>
<path d="M15.224 15.2266H14.4482V16.0023H15.224V15.2266Z" fill="#36F8EE"/>
<path d="M15.224 21.4316H14.4482V22.2074H15.224V21.4316Z" fill="black"/>
<path d="M15.224 25.3105H14.4482V26.0863H15.224V25.3105Z" fill="#36F8EE"/>
<path d="M15.224 5.14062H14.4482V5.91638H15.224V5.14062Z" fill="black"/>
<path d="M15.224 11.3477H14.4482V12.1234H15.224V11.3477Z" fill="#36F8EE"/>
<path d="M15.224 17.5527H14.4482V18.3285H15.224V17.5527Z" fill="#005856"/>
<path d="M15.224 8.24219H14.4482V9.01795H15.224V8.24219Z" fill="black"/>
<path d="M15.224 14.4492H14.4482V15.225H15.224V14.4492Z" fill="#36F8EE"/>
<path d="M15.224 20.6562H14.4482V21.432H15.224V20.6562Z" fill="black"/>
<path d="M15.224 24.5352H14.4482V25.3109H15.224V24.5352Z" fill="#005856"/>
<path d="M15.224 6.69141H14.4482V7.46716H15.224V6.69141Z" fill="black"/>
<path d="M15.224 12.8984H14.4482V13.6742H15.224V12.8984Z" fill="#36F8EE"/>
<path d="M15.224 19.1055H14.4482V19.8812H15.224V19.1055Z" fill="black"/>
<path d="M15.224 22.9844H14.4482V23.7601H15.224V22.9844Z" fill="#005856"/>
<path d="M15.224 9.79688H14.4482V10.5726H15.224V9.79688Z" fill="#36F8EE"/>
<path d="M15.224 16H14.4482V16.7758H15.224V16Z" fill="#36F8EE"/>
<path d="M15.224 22.207H14.4482V22.9828H15.224V22.207Z" fill="#005856"/>
<path d="M15.224 26.0859H14.4482V26.8617H15.224V26.0859Z" fill="black"/>
<path d="M10.5687 10.5703H9.79297V11.3461H10.5687V10.5703Z" fill="#006D76" fill-opacity="0.3"/>
<path d="M10.5687 16.7773H9.79297V17.5531H10.5687V16.7773Z" fill="#36F8EE"/>
<path d="M10.5687 7.46875H9.79297V8.24451H10.5687V7.46875Z" fill="black"/>
<path d="M10.5687 13.6738H9.79297V14.4496H10.5687V13.6738Z" fill="#006D76" fill-opacity="0.3"/>
<path d="M10.5687 19.8789H9.79297V20.6547H10.5687V19.8789Z" fill="#005856"/>
<path d="M10.5687 23.7578H9.79297V24.5336H10.5687V23.7578Z" fill="#36F8EE"/>
<path d="M10.5687 12.1211H9.79297V12.8969H10.5687V12.1211Z" fill="#006D76" fill-opacity="0.3"/>
<path d="M10.5687 18.3281H9.79297V19.1039H10.5687V18.3281Z" fill="#005856"/>
<path d="M10.5687 9.01953H9.79297V9.79531H10.5687V9.01953Z" fill="black"/>
<path d="M10.5687 15.2266H9.79297V16.0023H10.5687V15.2266Z" fill="black"/>
<path d="M10.5687 21.4316H9.79297V22.2074H10.5687V21.4316Z" fill="#005856"/>
<path d="M10.5687 25.3105H9.79297V26.0863H10.5687V25.3105Z" fill="black"/>
<path d="M10.5687 11.3477H9.79297V12.1234H10.5687V11.3477Z" fill="#006D76" fill-opacity="0.3"/>
<path d="M10.5687 17.5527H9.79297V18.3285H10.5687V17.5527Z" fill="#36F8EE"/>
<path d="M10.5687 8.24219H9.79297V9.01795H10.5687V8.24219Z" fill="black"/>
<path d="M10.5687 14.4492H9.79297V15.225H10.5687V14.4492Z" fill="#006D76" fill-opacity="0.3"/>
<path d="M10.5687 20.6562H9.79297V21.432H10.5687V20.6562Z" fill="#005856"/>
<path d="M10.5687 24.5352H9.79297V25.3109H10.5687V24.5352Z" fill="#36F8EE"/>
<path d="M10.5687 6.69141H9.79297V7.46716H10.5687V6.69141Z" fill="black"/>
<path d="M10.5687 12.8984H9.79297V13.6742H10.5687V12.8984Z" fill="#006D76" fill-opacity="0.3"/>
<path d="M10.5687 19.1055H9.79297V19.8812H10.5687V19.1055Z" fill="#005856"/>
<path d="M10.5687 22.9844H9.79297V23.7601H10.5687V22.9844Z" fill="#005856"/>
<path d="M10.5687 9.79688H9.79297V10.5726H10.5687V9.79688Z" fill="black"/>
<path d="M10.5687 16H9.79297V16.7758H10.5687V16Z" fill="black"/>
<path d="M10.5687 22.207H9.79297V22.9828H10.5687V22.207Z" fill="black"/>
<path d="M13.6722 10.5703H12.8965V11.3461H13.6722V10.5703Z" fill="black"/>
<path d="M13.6722 16.7773H12.8965V17.5531H13.6722V16.7773Z" fill="#005856"/>
<path d="M13.6722 7.46875H12.8965V8.24451H13.6722V7.46875Z" fill="#006D76" fill-opacity="0.3"/>
<path d="M13.6722 13.6738H12.8965V14.4496H13.6722V13.6738Z" fill="black"/>
<path d="M13.6722 19.8789H12.8965V20.6547H13.6722V19.8789Z" fill="black"/>
<path d="M13.6722 23.7578H12.8965V24.5336H13.6722V23.7578Z" fill="black"/>
<path d="M13.6722 12.1211H12.8965V12.8969H13.6722V12.1211Z" fill="black"/>
<path d="M13.6722 18.3281H12.8965V19.1039H13.6722V18.3281Z" fill="black"/>
<path d="M13.6722 9.01953H12.8965V9.79531H13.6722V9.01953Z" fill="black"/>
<path d="M13.6722 15.2266H12.8965V16.0023H13.6722V15.2266Z" fill="#36F8EE"/>
<path d="M13.6722 21.4316H12.8965V22.2074H13.6722V21.4316Z" fill="black"/>
<path d="M13.6722 25.3105H12.8965V26.0863H13.6722V25.3105Z" fill="#36F8EE"/>
<path d="M13.6722 11.3477H12.8965V12.1234H13.6722V11.3477Z" fill="#CDCDCD"/>
<path d="M13.6722 17.5527H12.8965V18.3285H13.6722V17.5527Z" fill="#005856"/>
<path d="M13.6722 8.24219H12.8965V9.01795H13.6722V8.24219Z" fill="black"/>
<path d="M13.6722 14.4492H12.8965V15.225H13.6722V14.4492Z" fill="#36F8EE"/>
<path d="M13.6722 20.6562H12.8965V21.432H13.6722V20.6562Z" fill="black"/>
<path d="M13.6722 24.5352H12.8965V25.3109H13.6722V24.5352Z" fill="#005856"/>
<path d="M13.6722 6.69141H12.8965V7.46716H13.6722V6.69141Z" fill="black"/>
<path d="M13.6722 12.8984H12.8965V13.6742H13.6722V12.8984Z" fill="black"/>
<path d="M13.6722 19.1055H12.8965V19.8812H13.6722V19.1055Z" fill="black"/>
<path d="M13.6722 22.9844H12.8965V23.7601H13.6722V22.9844Z" fill="black"/>
<path d="M13.6722 9.79688H12.8965V10.5726H13.6722V9.79688Z" fill="#36F8EE"/>
<path d="M13.6722 16H12.8965V16.7758H13.6722V16Z" fill="#36F8EE"/>
<path d="M13.6722 22.207H12.8965V22.9828H13.6722V22.207Z" fill="#005856"/>
<path d="M13.6722 26.0859H12.8965V26.8617H13.6722V26.0859Z" fill="black"/>
<path d="M9.01795 10.5703H8.24219V11.3461H9.01795V10.5703Z" fill="#36F8EE"/>
<path d="M9.01795 16.7773H8.24219V17.5531H9.01795V16.7773Z" fill="black"/>
<path d="M9.01795 7.46875H8.24219V8.24451H9.01795V7.46875Z" fill="#36F8EE"/>
<path d="M9.01795 19.8789H8.24219V20.6547H9.01795V19.8789Z" fill="#005856"/>
<path d="M9.01795 23.7578H8.24219V24.5336H9.01795V23.7578Z" fill="#36F8EE"/>
<path d="M9.01795 12.1211H8.24219V12.8969H9.01795V12.1211Z" fill="#36F8EE"/>
<path d="M9.01795 18.3281H8.24219V19.1039H9.01795V18.3281Z" fill="#36F8EE"/>
<path d="M9.01795 9.01953H8.24219V9.79531H9.01795V9.01953Z" fill="#36F8EE"/>
<path d="M9.01795 21.4316H8.24219V22.2074H9.01795V21.4316Z" fill="#005856"/>
<path d="M9.01795 11.3477H8.24219V12.1234H9.01795V11.3477Z" fill="#36F8EE"/>
<path d="M9.01795 17.5527H8.24219V18.3285H9.01795V17.5527Z" fill="#36F8EE"/>
<path d="M9.01795 8.24219H8.24219V9.01795H9.01795V8.24219Z" fill="#36F8EE"/>
<path d="M9.01795 20.6562H8.24219V21.432H9.01795V20.6562Z" fill="#005856"/>
<path d="M9.01795 24.5352H8.24219V25.3109H9.01795V24.5352Z" fill="black"/>
<path d="M9.01795 6.69141H8.24219V7.46716H9.01795V6.69141Z" fill="black"/>
<path d="M9.01795 12.8984H8.24219V13.6742H9.01795V12.8984Z" fill="black"/>
<path d="M9.01795 19.1055H8.24219V19.8812H9.01795V19.1055Z" fill="#36F8EE"/>
<path d="M9.01795 22.9844H8.24219V23.7601H9.01795V22.9844Z" fill="#36F8EE"/>
<path d="M9.01795 9.79688H8.24219V10.5726H9.01795V9.79688Z" fill="#36F8EE"/>
<path d="M9.01795 16H8.24219V16.7758H9.01795V16Z" fill="black"/>
<path d="M9.01795 22.207H8.24219V22.9828H9.01795V22.207Z" fill="#36F8EE"/>
<path d="M6.68981 7.46875H5.91406V8.24451H6.68981V7.46875Z" fill="#36F8EE"/>
<path d="M6.68981 19.8789H5.91406V20.6547H6.68981V19.8789Z" fill="black"/>
<path d="M6.68981 5.91797H5.91406V6.69373H6.68981V5.91797Z" fill="black"/>
<path d="M6.68981 18.3281H5.91406V19.1039H6.68981V18.3281Z" fill="black"/>
<path d="M6.68981 9.01953H5.91406V9.79531H6.68981V9.01953Z" fill="black"/>
<path d="M6.68981 21.4316H5.91406V22.2074H6.68981V21.4316Z" fill="black"/>
<path d="M6.68981 8.24219H5.91406V9.01795H6.68981V8.24219Z" fill="#36F8EE"/>
<path d="M6.68981 20.6562H5.91406V21.432H6.68981V20.6562Z" fill="black"/>
<path d="M6.68981 6.69141H5.91406V7.46716H6.68981V6.69141Z" fill="black"/>
<path d="M6.68981 19.1055H5.91406V19.8812H6.68981V19.1055Z" fill="black"/>
<path d="M6.68981 9.79688H5.91406V10.5726H6.68981V9.79688Z" fill="black"/>
<path d="M6.68981 22.207H5.91406V22.9828H6.68981V22.207Z" fill="black"/>
<path d="M18.3265 10.5703H17.5508V11.3461H18.3265V10.5703Z" fill="black"/>
<path d="M18.3265 16.7773H17.5508V17.5531H18.3265V16.7773Z" fill="#005856"/>
<path d="M18.3265 7.46875H17.5508V8.24451H18.3265V7.46875Z" fill="black"/>
<path d="M18.3265 13.6738H17.5508V14.4496H18.3265V13.6738Z" fill="black"/>
<path d="M18.3265 19.8789H17.5508V20.6547H18.3265V19.8789Z" fill="black"/>
<path d="M18.3265 23.7578H17.5508V24.5336H18.3265V23.7578Z" fill="black"/>
<path d="M18.3265 5.91797H17.5508V6.69373H18.3265V5.91797Z" fill="black"/>
<path d="M18.3265 12.1211H17.5508V12.8969H18.3265V12.1211Z" fill="black"/>
<path d="M18.3265 18.3281H17.5508V19.1039H18.3265V18.3281Z" fill="black"/>
<path d="M18.3265 9.01953H17.5508V9.79531H18.3265V9.01953Z" fill="black"/>
<path d="M18.3265 15.2266H17.5508V16.0023H18.3265V15.2266Z" fill="#36F8EE"/>
<path d="M18.3265 21.4316H17.5508V22.2074H18.3265V21.4316Z" fill="black"/>
<path d="M18.3265 25.3105H17.5508V26.0863H18.3265V25.3105Z" fill="#36F8EE"/>
<path d="M18.3265 11.3477H17.5508V12.1234H18.3265V11.3477Z" fill="black"/>
<path d="M18.3265 17.5527H17.5508V18.3285H18.3265V17.5527Z" fill="#005856"/>
<path d="M18.3265 8.24219H17.5508V9.01795H18.3265V8.24219Z" fill="black"/>
<path d="M18.3265 14.4492H17.5508V15.225H18.3265V14.4492Z" fill="#36F8EE"/>
<path d="M18.3265 20.6562H17.5508V21.432H18.3265V20.6562Z" fill="black"/>
<path d="M18.3265 24.5352H17.5508V25.3109H18.3265V24.5352Z" fill="#005856"/>
<path d="M18.3265 6.69141H17.5508V7.46716H18.3265V6.69141Z" fill="black"/>
<path d="M18.3265 12.8984H17.5508V13.6742H18.3265V12.8984Z" fill="black"/>
<path d="M18.3265 19.1055H17.5508V19.8812H18.3265V19.1055Z" fill="black"/>
<path d="M18.3265 22.9844H17.5508V23.7601H18.3265V22.9844Z" fill="#005856"/>
<path d="M18.3265 9.79688H17.5508V10.5726H18.3265V9.79688Z" fill="#36F8EE"/>
<path d="M18.3265 16H17.5508V16.7758H18.3265V16Z" fill="#36F8EE"/>
<path d="M18.3265 22.207H17.5508V22.9828H18.3265V22.207Z" fill="#005856"/>
<path d="M18.3265 26.0859H17.5508V26.8617H18.3265V26.0859Z" fill="black"/>
<path d="M22.9818 10.5703H22.2061V11.3461H22.9818V10.5703Z" fill="black"/>
<path d="M22.9818 16.7773H22.2061V17.5531H22.9818V16.7773Z" fill="black"/>
<path d="M22.9818 7.46875H22.2061V8.24451H22.9818V7.46875Z" fill="#36F8EE"/>
<path d="M22.9818 13.6738H22.2061V14.4496H22.9818V13.6738Z" fill="black"/>
<path d="M22.9818 19.8789H22.2061V20.6547H22.9818V19.8789Z" fill="#005856"/>
<path d="M22.9818 23.7578H22.2061V24.5336H22.9818V23.7578Z" fill="#36F8EE"/>
<path d="M22.9818 12.1211H22.2061V12.8969H22.9818V12.1211Z" fill="black"/>
<path d="M22.9818 18.3281H22.2061V19.1039H22.9818V18.3281Z" fill="#36F8EE"/>
<path d="M22.9818 9.01953H22.2061V9.79531H22.9818V9.01953Z" fill="#36F8EE"/>
<path d="M22.9818 15.2266H22.2061V16.0023H22.9818V15.2266Z" fill="black"/>
<path d="M22.9818 21.4316H22.2061V22.2074H22.9818V21.4316Z" fill="black"/>
<path d="M22.9818 25.3105H22.2061V26.0863H22.9818V25.3105Z" fill="black"/>
<path d="M22.9818 11.3477H22.2061V12.1234H22.9818V11.3477Z" fill="black"/>
<path d="M22.9818 17.5527H22.2061V18.3285H22.9818V17.5527Z" fill="#36F8EE"/>
<path d="M22.9818 8.24219H22.2061V9.01795H22.9818V8.24219Z" fill="#36F8EE"/>
<path d="M22.9818 14.4492H22.2061V15.225H22.9818V14.4492Z" fill="black"/>
<path d="M22.9818 20.6562H22.2061V21.432H22.9818V20.6562Z" fill="#005856"/>
<path d="M22.9818 24.5352H22.2061V25.3109H22.9818V24.5352Z" fill="#36F8EE"/>
<path d="M22.9818 6.69141H22.2061V7.46716H22.9818V6.69141Z" fill="black"/>
<path d="M22.9818 12.8984H22.2061V13.6742H22.9818V12.8984Z" fill="black"/>
<path d="M22.9818 19.1055H22.2061V19.8812H22.9818V19.1055Z" fill="#005856"/>
<path d="M22.9818 22.9844H22.2061V23.7601H22.9818V22.9844Z" fill="#005856"/>
<path d="M22.9818 9.79688H22.2061V10.5726H22.9818V9.79688Z" fill="black"/>
<path d="M22.9818 16H22.2061V16.7758H22.9818V16Z" fill="black"/>
<path d="M22.9818 22.207H22.2061V22.9828H22.9818V22.207Z" fill="#005856"/>
<path d="M19.8783 10.5703H19.1025V11.3461H19.8783V10.5703Z" fill="black"/>
<path d="M19.8783 16.7773H19.1025V17.5531H19.8783V16.7773Z" fill="#005856"/>
<path d="M19.8783 7.46875H19.1025V8.24451H19.8783V7.46875Z" fill="#006D76" fill-opacity="0.3"/>
<path d="M19.8783 13.6738H19.1025V14.4496H19.8783V13.6738Z" fill="black"/>
<path d="M19.8783 19.8789H19.1025V20.6547H19.8783V19.8789Z" fill="black"/>
<path d="M19.8783 23.7578H19.1025V24.5336H19.8783V23.7578Z" fill="#005856"/>
<path d="M19.8783 12.1211H19.1025V12.8969H19.8783V12.1211Z" fill="black"/>
<path d="M19.8783 18.3281H19.1025V19.1039H19.8783V18.3281Z" fill="#005856"/>
<path d="M19.8783 9.01953H19.1025V9.79531H19.8783V9.01953Z" fill="black"/>
<path d="M19.8783 15.2266H19.1025V16.0023H19.8783V15.2266Z" fill="#006D76" fill-opacity="0.3"/>
<path d="M19.8783 21.4316H19.1025V22.2074H19.8783V21.4316Z" fill="#005856"/>
<path d="M19.8783 25.3105H19.1025V26.0863H19.8783V25.3105Z" fill="#36F8EE"/>
<path d="M19.8783 11.3477H19.1025V12.1234H19.8783V11.3477Z" fill="black"/>
<path d="M19.8783 17.5527H19.1025V18.3285H19.8783V17.5527Z" fill="#005856"/>
<path d="M19.8783 8.24219H19.1025V9.01795H19.8783V8.24219Z" fill="#006D76" fill-opacity="0.3"/>
<path d="M19.8783 14.4492H19.1025V15.225H19.8783V14.4492Z" fill="#36F8EE"/>
<path d="M19.8783 20.6562H19.1025V21.432H19.8783V20.6562Z" fill="black"/>
<path d="M19.8783 24.5352H19.1025V25.3109H19.8783V24.5352Z" fill="#36F8EE"/>
<path d="M19.8783 6.69141H19.1025V7.46716H19.8783V6.69141Z" fill="black"/>
<path d="M19.8783 12.8984H19.1025V13.6742H19.8783V12.8984Z" fill="black"/>
<path d="M19.8783 19.1055H19.1025V19.8812H19.8783V19.1055Z" fill="black"/>
<path d="M19.8783 22.9844H19.1025V23.7601H19.8783V22.9844Z" fill="black"/>
<path d="M19.8783 9.79688H19.1025V10.5726H19.8783V9.79688Z" fill="#36F8EE"/>
<path d="M19.8783 16H19.1025V16.7758H19.8783V16Z" fill="#36F8EE"/>
<path d="M19.8783 22.207H19.1025V22.9828H19.8783V22.207Z" fill="#005856"/>
<path d="M19.8783 26.0859H19.1025V26.8617H19.8783V26.0859Z" fill="black"/>
<path d="M24.5326 10.5703H23.7568V11.3461H24.5326V10.5703Z" fill="black"/>
<path d="M24.5326 16.7773H23.7568V17.5531H24.5326V16.7773Z" fill="black"/>
<path d="M24.5326 7.46875H23.7568V8.24451H24.5326V7.46875Z" fill="#36F8EE"/>
<path d="M24.5326 19.8789H23.7568V20.6547H24.5326V19.8789Z" fill="#36F8EE"/>
<path d="M24.5326 23.7578H23.7568V24.5336H24.5326V23.7578Z" fill="black"/>
<path d="M24.5326 5.91797H23.7568V6.69373H24.5326V5.91797Z" fill="black"/>
<path d="M24.5326 12.1211H23.7568V12.8969H24.5326V12.1211Z" fill="black"/>
<path d="M24.5326 18.3281H23.7568V19.1039H24.5326V18.3281Z" fill="#36F8EE"/>
<path d="M24.5326 9.01953H23.7568V9.79531H24.5326V9.01953Z" fill="#36F8EE"/>
<path d="M24.5326 21.4316H23.7568V22.2074H24.5326V21.4316Z" fill="#36F8EE"/>
<path d="M24.5326 11.3477H23.7568V12.1234H24.5326V11.3477Z" fill="black"/>
<path d="M24.5326 17.5527H23.7568V18.3285H24.5326V17.5527Z" fill="black"/>
<path d="M24.5326 8.24219H23.7568V9.01795H24.5326V8.24219Z" fill="#36F8EE"/>
<path d="M24.5326 20.6562H23.7568V21.432H24.5326V20.6562Z" fill="#36F8EE"/>
<path d="M24.5326 24.5352H23.7568V25.3109H24.5326V24.5352Z" fill="black"/>
<path d="M24.5326 6.69141H23.7568V7.46716H24.5326V6.69141Z" fill="black"/>
<path d="M24.5326 19.1055H23.7568V19.8812H24.5326V19.1055Z" fill="#36F8EE"/>
<path d="M24.5326 22.9844H23.7568V23.7601H24.5326V22.9844Z" fill="#36F8EE"/>
<path d="M24.5326 9.79688H23.7568V10.5726H24.5326V9.79688Z" fill="#36F8EE"/>
<path d="M24.5326 22.207H23.7568V22.9828H24.5326V22.207Z" fill="#36F8EE"/>
<path d="M26.8607 7.46875H26.085V8.24451H26.8607V7.46875Z" fill="black"/>
<path d="M26.8607 9.01953H26.085V9.79531H26.8607V9.01953Z" fill="black"/>
<path d="M26.8607 8.24219H26.085V9.01795H26.8607V8.24219Z" fill="black"/>
<path d="M26.8607 6.69141H26.085V7.46716H26.8607V6.69141Z" fill="black"/>
<path d="M16.7748 10.5703H15.999V11.3461H16.7748V10.5703Z" fill="#36F8EE"/>
<path d="M16.7748 16.7773H15.999V17.5531H16.7748V16.7773Z" fill="#005856"/>
<path d="M16.7748 7.46875H15.999V8.24451H16.7748V7.46875Z" fill="black"/>
<path d="M16.7748 13.6738H15.999V14.4496H16.7748V13.6738Z" fill="#36F8EE"/>
<path d="M16.7748 19.8789H15.999V20.6547H16.7748V19.8789Z" fill="#005856"/>
<path d="M16.7748 23.7578H15.999V24.5336H16.7748V23.7578Z" fill="black"/>
<path d="M16.7748 5.91797H15.999V6.69373H16.7748V5.91797Z" fill="black"/>
<path d="M16.7748 12.1211H15.999V12.8969H16.7748V12.1211Z" fill="#36F8EE"/>
<path d="M16.7748 18.3281H15.999V19.1039H16.7748V18.3281Z" fill="#005856"/>
<path d="M16.7748 9.01953H15.999V9.79531H16.7748V9.01953Z" fill="#36F8EE"/>
<path d="M16.7748 15.2266H15.999V16.0023H16.7748V15.2266Z" fill="#36F8EE"/>
<path d="M16.7748 21.4316H15.999V22.2074H16.7748V21.4316Z" fill="#005856"/>
<path d="M16.7748 25.3105H15.999V26.0863H16.7748V25.3105Z" fill="#36F8EE"/>
<path d="M16.7748 5.14062H15.999V5.91638H16.7748V5.14062Z" fill="black"/>
<path d="M16.7748 11.3477H15.999V12.1234H16.7748V11.3477Z" fill="#36F8EE"/>
<path d="M16.7748 17.5527H15.999V18.3285H16.7748V17.5527Z" fill="#005856"/>
<path d="M16.7748 8.24219H15.999V9.01795H16.7748V8.24219Z" fill="#36F8EE"/>
<path d="M16.7748 14.4492H15.999V15.225H16.7748V14.4492Z" fill="#36F8EE"/>
<path d="M16.7748 20.6562H15.999V21.432H16.7748V20.6562Z" fill="#005856"/>
<path d="M16.7748 24.5352H15.999V25.3109H16.7748V24.5352Z" fill="#005856"/>
<path d="M16.7748 6.69141H15.999V7.46716H16.7748V6.69141Z" fill="black"/>
<path d="M16.7748 12.8984H15.999V13.6742H16.7748V12.8984Z" fill="#36F8EE"/>
<path d="M16.7748 19.1055H15.999V19.8812H16.7748V19.1055Z" fill="#005856"/>
<path d="M16.7748 22.9844H15.999V23.7601H16.7748V22.9844Z" fill="#005856"/>
<path d="M16.7748 9.79688H15.999V10.5726H16.7748V9.79688Z" fill="#36F8EE"/>
<path d="M16.7748 16H15.999V16.7758H16.7748V16Z" fill="#36F8EE"/>
<path d="M16.7748 22.207H15.999V22.9828H16.7748V22.207Z" fill="#005856"/>
<path d="M16.7748 26.0859H15.999V26.8617H16.7748V26.0859Z" fill="black"/>
<path d="M21.4301 10.5703H20.6543V11.3461H21.4301V10.5703Z" fill="#006D76" fill-opacity="0.3"/>
<path d="M21.4301 16.7773H20.6543V17.5531H21.4301V16.7773Z" fill="#36F8EE"/>
<path d="M21.4301 7.46875H20.6543V8.24451H21.4301V7.46875Z" fill="black"/>
<path d="M21.4301 13.6738H20.6543V14.4496H21.4301V13.6738Z" fill="#006D76" fill-opacity="0.3"/>
<path d="M21.4301 19.8789H20.6543V20.6547H21.4301V19.8789Z" fill="#005856"/>
<path d="M21.4301 23.7578H20.6543V24.5336H21.4301V23.7578Z" fill="#36F8EE"/>
<path d="M21.4301 12.1211H20.6543V12.8969H21.4301V12.1211Z" fill="#006D76" fill-opacity="0.3"/>
<path d="M21.4301 18.3281H20.6543V19.1039H21.4301V18.3281Z" fill="#005856"/>
<path d="M21.4301 9.01953H20.6543V9.79531H21.4301V9.01953Z" fill="#006D76" fill-opacity="0.3"/>
<path d="M21.4301 15.2266H20.6543V16.0023H21.4301V15.2266Z" fill="black"/>
<path d="M21.4301 21.4316H20.6543V22.2074H21.4301V21.4316Z" fill="#005856"/>
<path d="M21.4301 25.3105H20.6543V26.0863H21.4301V25.3105Z" fill="black"/>
<path d="M21.4301 11.3477H20.6543V12.1234H21.4301V11.3477Z" fill="#006D76" fill-opacity="0.3"/>
<path d="M21.4301 17.5527H20.6543V18.3285H21.4301V17.5527Z" fill="#005856"/>
<path d="M21.4301 8.24219H20.6543V9.01795H21.4301V8.24219Z" fill="#006D76" fill-opacity="0.3"/>
<path d="M21.4301 14.4492H20.6543V15.225H21.4301V14.4492Z" fill="#006D76" fill-opacity="0.3"/>
<path d="M21.4301 20.6562H20.6543V21.432H21.4301V20.6562Z" fill="#005856"/>
<path d="M21.4301 24.5352H20.6543V25.3109H21.4301V24.5352Z" fill="#36F8EE"/>
<path d="M21.4301 12.8984H20.6543V13.6742H21.4301V12.8984Z" fill="#006D76" fill-opacity="0.3"/>
<path d="M21.4301 19.1055H20.6543V19.8812H21.4301V19.1055Z" fill="#005856"/>
<path d="M21.4301 22.9844H20.6543V23.7601H21.4301V22.9844Z" fill="#005856"/>
<path d="M21.4301 9.79688H20.6543V10.5726H21.4301V9.79688Z" fill="#006D76" fill-opacity="0.3"/>
<path d="M21.4301 16H20.6543V16.7758H21.4301V16Z" fill="black"/>
<path d="M21.4301 22.207H20.6543V22.9828H21.4301V22.207Z" fill="black"/>
<path d="M20.6537 10.5703H19.8779V11.3461H20.6537V10.5703Z" fill="#36F8EE"/>
<path d="M20.6537 16.7773H19.8779V17.5531H20.6537V16.7773Z" fill="#005856"/>
<path d="M20.6537 7.46875H19.8779V8.24451H20.6537V7.46875Z" fill="black"/>
<path d="M20.6537 13.6738H19.8779V14.4496H20.6537V13.6738Z" fill="#36F8EE"/>
<path d="M20.6537 19.8789H19.8779V20.6547H20.6537V19.8789Z" fill="black"/>
<path d="M20.6537 23.7578H19.8779V24.5336H20.6537V23.7578Z" fill="#005856"/>
<path d="M20.6537 12.1211H19.8779V12.8969H20.6537V12.1211Z" fill="#36F8EE"/>
<path d="M20.6537 18.3281H19.8779V19.1039H20.6537V18.3281Z" fill="#005856"/>
<path d="M20.6537 9.01953H19.8779V9.79531H20.6537V9.01953Z" fill="#006D76" fill-opacity="0.3"/>
<path d="M20.6537 15.2266H19.8779V16.0023H20.6537V15.2266Z" fill="#006D76" fill-opacity="0.3"/>
<path d="M20.6537 21.4316H19.8779V22.2074H20.6537V21.4316Z" fill="#005856"/>
<path d="M20.6537 25.3105H19.8779V26.0863H20.6537V25.3105Z" fill="#36F8EE"/>
<path d="M20.6537 11.3477H19.8779V12.1234H20.6537V11.3477Z" fill="#36F8EE"/>
<path d="M20.6537 17.5527H19.8779V18.3285H20.6537V17.5527Z" fill="#005856"/>
<path d="M20.6537 8.24219H19.8779V9.01795H20.6537V8.24219Z" fill="#006D76" fill-opacity="0.3"/>
<path d="M20.6537 14.4492H19.8779V15.225H20.6537V14.4492Z" fill="#36F8EE"/>
<path d="M20.6537 20.6562H19.8779V21.432H20.6537V20.6562Z" fill="black"/>
<path d="M20.6537 24.5352H19.8779V25.3109H20.6537V24.5352Z" fill="#36F8EE"/>
<path d="M20.6537 12.8984H19.8779V13.6742H20.6537V12.8984Z" fill="#36F8EE"/>
<path d="M20.6537 19.1055H19.8779V19.8812H20.6537V19.1055Z" fill="#005856"/>
<path d="M20.6537 22.9844H19.8779V23.7601H20.6537V22.9844Z" fill="black"/>
<path d="M20.6537 9.79688H19.8779V10.5726H20.6537V9.79688Z" fill="#36F8EE"/>
<path d="M20.6537 16H19.8779V16.7758H20.6537V16Z" fill="black"/>
<path d="M20.6537 22.207H19.8779V22.9828H20.6537V22.207Z" fill="#005856"/>
<path d="M20.6537 26.0859H19.8779V26.8617H20.6537V26.0859Z" fill="black"/>
<path d="M25.308 10.5703H24.5322V11.3461H25.308V10.5703Z" fill="black"/>
<path d="M25.308 7.46875H24.5322V8.24451H25.308V7.46875Z" fill="#36F8EE"/>
<path d="M25.308 19.8789H24.5322V20.6547H25.308V19.8789Z" fill="#36F8EE"/>
<path d="M25.308 5.91797H24.5322V6.69373H25.308V5.91797Z" fill="black"/>
<path d="M25.308 18.3281H24.5322V19.1039H25.308V18.3281Z" fill="black"/>
<path d="M25.308 9.01953H24.5322V9.79531H25.308V9.01953Z" fill="#36F8EE"/>
<path d="M25.308 21.4316H24.5322V22.2074H25.308V21.4316Z" fill="#36F8EE"/>
<path d="M25.308 17.5527H24.5322V18.3285H25.308V17.5527Z" fill="black"/>
<path d="M25.308 8.24219H24.5322V9.01795H25.308V8.24219Z" fill="#36F8EE"/>
<path d="M25.308 20.6562H24.5322V21.432H25.308V20.6562Z" fill="#36F8EE"/>
<path d="M25.308 6.69141H24.5322V7.46716H25.308V6.69141Z" fill="#36F8EE"/>
<path d="M25.308 19.1055H24.5322V19.8812H25.308V19.1055Z" fill="#36F8EE"/>
<path d="M25.308 22.9844H24.5322V23.7601H25.308V22.9844Z" fill="black"/>
<path d="M25.308 9.79688H24.5322V10.5726H25.308V9.79688Z" fill="black"/>
<path d="M25.308 22.207H24.5322V22.9828H25.308V22.207Z" fill="#36F8EE"/>
<path d="M17.5511 10.5703H16.7754V11.3461H17.5511V10.5703Z" fill="#36F8EE"/>
<path d="M17.5511 16.7773H16.7754V17.5531H17.5511V16.7773Z" fill="#005856"/>
<path d="M17.5511 7.46875H16.7754V8.24451H17.5511V7.46875Z" fill="black"/>
<path d="M17.5511 13.6738H16.7754V14.4496H17.5511V13.6738Z" fill="#36F8EE"/>
<path d="M17.5511 19.8789H16.7754V20.6547H17.5511V19.8789Z" fill="black"/>
<path d="M17.5511 23.7578H16.7754V24.5336H17.5511V23.7578Z" fill="black"/>
<path d="M17.5511 5.91797H16.7754V6.69373H17.5511V5.91797Z" fill="black"/>
<path d="M17.5511 12.1211H16.7754V12.8969H17.5511V12.1211Z" fill="#36F8EE"/>
<path d="M17.5511 18.3281H16.7754V19.1039H17.5511V18.3281Z" fill="black"/>
<path d="M17.5511 9.01953H16.7754V9.79531H17.5511V9.01953Z" fill="#36F8EE"/>
<path d="M17.5511 15.2266H16.7754V16.0023H17.5511V15.2266Z" fill="#36F8EE"/>
<path d="M17.5511 21.4316H16.7754V22.2074H17.5511V21.4316Z" fill="black"/>
<path d="M17.5511 25.3105H16.7754V26.0863H17.5511V25.3105Z" fill="#36F8EE"/>
<path d="M17.5511 5.14062H16.7754V5.91638H17.5511V5.14062Z" fill="black"/>
<path d="M17.5511 11.3477H16.7754V12.1234H17.5511V11.3477Z" fill="#36F8EE"/>
<path d="M17.5511 17.5527H16.7754V18.3285H17.5511V17.5527Z" fill="#005856"/>
<path d="M17.5511 8.24219H16.7754V9.01795H17.5511V8.24219Z" fill="black"/>
<path d="M17.5511 14.4492H16.7754V15.225H17.5511V14.4492Z" fill="#36F8EE"/>
<path d="M17.5511 20.6562H16.7754V21.432H17.5511V20.6562Z" fill="black"/>
<path d="M17.5511 24.5352H16.7754V25.3109H17.5511V24.5352Z" fill="#005856"/>
<path d="M17.5511 6.69141H16.7754V7.46716H17.5511V6.69141Z" fill="black"/>
<path d="M17.5511 12.8984H16.7754V13.6742H17.5511V12.8984Z" fill="#36F8EE"/>
<path d="M17.5511 19.1055H16.7754V19.8812H17.5511V19.1055Z" fill="black"/>
<path d="M17.5511 22.9844H16.7754V23.7601H17.5511V22.9844Z" fill="#005856"/>
<path d="M17.5511 9.79688H16.7754V10.5726H17.5511V9.79688Z" fill="#36F8EE"/>
<path d="M17.5511 16H16.7754V16.7758H17.5511V16Z" fill="#36F8EE"/>
<path d="M17.5511 22.207H16.7754V22.9828H17.5511V22.207Z" fill="#005856"/>
<path d="M17.5511 26.0859H16.7754V26.8617H17.5511V26.0859Z" fill="black"/>
<path d="M22.2054 10.5703H21.4297V11.3461H22.2054V10.5703Z" fill="#006D76" fill-opacity="0.3"/>
<path d="M22.2054 16.7773H21.4297V17.5531H22.2054V16.7773Z" fill="#36F8EE"/>
<path d="M22.2054 7.46875H21.4297V8.24451H22.2054V7.46875Z" fill="black"/>
<path d="M22.2054 13.6738H21.4297V14.4496H22.2054V13.6738Z" fill="#006D76" fill-opacity="0.3"/>
<path d="M22.2054 19.8789H21.4297V20.6547H22.2054V19.8789Z" fill="#005856"/>
<path d="M22.2054 23.7578H21.4297V24.5336H22.2054V23.7578Z" fill="#36F8EE"/>
<path d="M22.2054 12.1211H21.4297V12.8969H22.2054V12.1211Z" fill="#006D76" fill-opacity="0.3"/>
<path d="M22.2054 18.3281H21.4297V19.1039H22.2054V18.3281Z" fill="#005856"/>
<path d="M22.2054 9.01953H21.4297V9.79531H22.2054V9.01953Z" fill="black"/>
<path d="M22.2054 15.2266H21.4297V16.0023H22.2054V15.2266Z" fill="black"/>
<path d="M22.2054 21.4316H21.4297V22.2074H22.2054V21.4316Z" fill="#005856"/>
<path d="M22.2054 25.3105H21.4297V26.0863H22.2054V25.3105Z" fill="black"/>
<path d="M22.2054 11.3477H21.4297V12.1234H22.2054V11.3477Z" fill="#006D76" fill-opacity="0.3"/>
<path d="M22.2054 17.5527H21.4297V18.3285H22.2054V17.5527Z" fill="#36F8EE"/>
<path d="M22.2054 8.24219H21.4297V9.01795H22.2054V8.24219Z" fill="black"/>
<path d="M22.2054 14.4492H21.4297V15.225H22.2054V14.4492Z" fill="#006D76" fill-opacity="0.3"/>
<path d="M22.2054 20.6562H21.4297V21.432H22.2054V20.6562Z" fill="#005856"/>
<path d="M22.2054 24.5352H21.4297V25.3109H22.2054V24.5352Z" fill="#36F8EE"/>
<path d="M22.2054 6.69141H21.4297V7.46716H22.2054V6.69141Z" fill="black"/>
<path d="M22.2054 12.8984H21.4297V13.6742H22.2054V12.8984Z" fill="#006D76" fill-opacity="0.3"/>
<path d="M22.2054 19.1055H21.4297V19.8812H22.2054V19.1055Z" fill="#005856"/>
<path d="M22.2054 22.9844H21.4297V23.7601H22.2054V22.9844Z" fill="#005856"/>
<path d="M22.2054 9.79688H21.4297V10.5726H22.2054V9.79688Z" fill="black"/>
<path d="M22.2054 16H21.4297V16.7758H22.2054V16Z" fill="black"/>
<path d="M22.2054 22.207H21.4297V22.9828H22.2054V22.207Z" fill="black"/>
<path d="M19.1029 10.5703H18.3271V11.3461H19.1029V10.5703Z" fill="black"/>
<path d="M19.1029 16.7773H18.3271V17.5531H19.1029V16.7773Z" fill="#005856"/>
<path d="M19.1029 7.46875H18.3271V8.24451H19.1029V7.46875Z" fill="#006D76" fill-opacity="0.3"/>
<path d="M19.1029 13.6738H18.3271V14.4496H19.1029V13.6738Z" fill="black"/>
<path d="M19.1029 19.8789H18.3271V20.6547H19.1029V19.8789Z" fill="black"/>
<path d="M19.1029 23.7578H18.3271V24.5336H19.1029V23.7578Z" fill="black"/>
<path d="M19.1029 12.1211H18.3271V12.8969H19.1029V12.1211Z" fill="black"/>
<path d="M19.1029 18.3281H18.3271V19.1039H19.1029V18.3281Z" fill="black"/>
<path d="M19.1029 9.01953H18.3271V9.79531H19.1029V9.01953Z" fill="black"/>
<path d="M19.1029 15.2266H18.3271V16.0023H19.1029V15.2266Z" fill="#36F8EE"/>
<path d="M19.1029 21.4316H18.3271V22.2074H19.1029V21.4316Z" fill="black"/>
<path d="M19.1029 25.3105H18.3271V26.0863H19.1029V25.3105Z" fill="#36F8EE"/>
<path d="M19.1029 11.3477H18.3271V12.1234H19.1029V11.3477Z" fill="#CDCDCD"/>
<path d="M19.1029 17.5527H18.3271V18.3285H19.1029V17.5527Z" fill="#005856"/>
<path d="M19.1029 8.24219H18.3271V9.01795H19.1029V8.24219Z" fill="black"/>
<path d="M19.1029 14.4492H18.3271V15.225H19.1029V14.4492Z" fill="#36F8EE"/>
<path d="M19.1029 20.6562H18.3271V21.432H19.1029V20.6562Z" fill="black"/>
<path d="M19.1029 24.5352H18.3271V25.3109H19.1029V24.5352Z" fill="#005856"/>
<path d="M19.1029 6.69141H18.3271V7.46716H19.1029V6.69141Z" fill="black"/>
<path d="M19.1029 12.8984H18.3271V13.6742H19.1029V12.8984Z" fill="black"/>
<path d="M19.1029 19.1055H18.3271V19.8812H19.1029V19.1055Z" fill="black"/>
<path d="M19.1029 22.9844H18.3271V23.7601H19.1029V22.9844Z" fill="black"/>
<path d="M19.1029 9.79688H18.3271V10.5726H19.1029V9.79688Z" fill="#36F8EE"/>
<path d="M19.1029 16H18.3271V16.7758H19.1029V16Z" fill="#36F8EE"/>
<path d="M19.1029 22.207H18.3271V22.9828H19.1029V22.207Z" fill="#005856"/>
<path d="M19.1029 26.0859H18.3271V26.8617H19.1029V26.0859Z" fill="black"/>
<path d="M23.7572 10.5703H22.9814V11.3461H23.7572V10.5703Z" fill="#36F8EE"/>
<path d="M23.7572 16.7773H22.9814V17.5531H23.7572V16.7773Z" fill="black"/>
<path d="M23.7572 7.46875H22.9814V8.24451H23.7572V7.46875Z" fill="#36F8EE"/>
<path d="M23.7572 19.8789H22.9814V20.6547H23.7572V19.8789Z" fill="#005856"/>
<path d="M23.7572 23.7578H22.9814V24.5336H23.7572V23.7578Z" fill="#36F8EE"/>
<path d="M23.7572 12.1211H22.9814V12.8969H23.7572V12.1211Z" fill="#36F8EE"/>
<path d="M23.7572 18.3281H22.9814V19.1039H23.7572V18.3281Z" fill="#36F8EE"/>
<path d="M23.7572 9.01953H22.9814V9.79531H23.7572V9.01953Z" fill="#36F8EE"/>
<path d="M23.7572 21.4316H22.9814V22.2074H23.7572V21.4316Z" fill="#005856"/>
<path d="M23.7572 11.3477H22.9814V12.1234H23.7572V11.3477Z" fill="#36F8EE"/>
<path d="M23.7572 17.5527H22.9814V18.3285H23.7572V17.5527Z" fill="#36F8EE"/>
<path d="M23.7572 8.24219H22.9814V9.01795H23.7572V8.24219Z" fill="#36F8EE"/>
<path d="M23.7572 20.6562H22.9814V21.432H23.7572V20.6562Z" fill="#005856"/>
<path d="M23.7572 24.5352H22.9814V25.3109H23.7572V24.5352Z" fill="black"/>
<path d="M23.7572 6.69141H22.9814V7.46716H23.7572V6.69141Z" fill="black"/>
<path d="M23.7572 12.8984H22.9814V13.6742H23.7572V12.8984Z" fill="black"/>
<path d="M23.7572 19.1055H22.9814V19.8812H23.7572V19.1055Z" fill="#36F8EE"/>
<path d="M23.7572 22.9844H22.9814V23.7601H23.7572V22.9844Z" fill="#36F8EE"/>
<path d="M23.7572 9.79688H22.9814V10.5726H23.7572V9.79688Z" fill="#36F8EE"/>
<path d="M23.7572 16H22.9814V16.7758H23.7572V16Z" fill="black"/>
<path d="M23.7572 22.207H22.9814V22.9828H23.7572V22.207Z" fill="#36F8EE"/>
<path d="M26.0844 7.46875H25.3086V8.24451H26.0844V7.46875Z" fill="#36F8EE"/>
<path d="M26.0844 19.8789H25.3086V20.6547H26.0844V19.8789Z" fill="black"/>
<path d="M26.0844 5.91797H25.3086V6.69373H26.0844V5.91797Z" fill="black"/>
<path d="M26.0844 18.3281H25.3086V19.1039H26.0844V18.3281Z" fill="black"/>
<path d="M26.0844 9.01953H25.3086V9.79531H26.0844V9.01953Z" fill="black"/>
<path d="M26.0844 21.4316H25.3086V22.2074H26.0844V21.4316Z" fill="black"/>
<path d="M26.0844 8.24219H25.3086V9.01795H26.0844V8.24219Z" fill="#36F8EE"/>
<path d="M26.0844 20.6562H25.3086V21.432H26.0844V20.6562Z" fill="black"/>
<path d="M26.0844 6.69141H25.3086V7.46716H26.0844V6.69141Z" fill="black"/>
<path d="M26.0844 19.1055H25.3086V19.8812H26.0844V19.1055Z" fill="black"/>
<path d="M26.0844 9.79688H25.3086V10.5726H26.0844V9.79688Z" fill="black"/>
<path d="M26.0844 22.207H25.3086V22.9828H26.0844V22.207Z" fill="black"/>
</g>
</g>
<rect x="0.5" y="0.5" width="31" height="31" stroke="#00AAA6"/>
<defs>
<clipPath id="clip0_1511_15466">
<rect width="32" height="32" fill="white"/>
</clipPath>
</defs>
</svg>
