<svg width="1580" height="990" viewBox="0 0 1580 990" fill="none" xmlns="http://www.w3.org/2000/svg">
<path d="M1114.33 944.501C1114.33 950.393 1119.11 955.168 1125 955.168C1130.89 955.168 1135.67 950.393 1135.67 944.501C1135.67 938.61 1130.89 933.835 1125 933.835C1119.11 933.835 1114.33 938.61 1114.33 944.501ZM1141.5 920.501L1143.44 920.977L1143.78 919.604L1142.6 918.829L1141.5 920.501ZM1073.5 837.001L1075.45 836.572L1073.5 837.001ZM1067.5 261.501L1065.63 260.785L1067.5 261.501ZM1170.5 93.0014L1169.33 91.3807L1169.33 91.3807L1170.5 93.0014ZM1547.95 140.593L1557.03 160.808L1571.97 143.193L1550.54 137.542L1547.95 140.593ZM1129.14 143.501L1127.46 142.417L1129.14 143.501ZM1124.9 946.499C1127.71 946.633 1130.15 945.363 1132.17 943.561C1134.19 941.763 1135.93 939.308 1137.39 936.693C1140.33 931.459 1142.41 925.174 1143.44 920.977L1139.56 920.026C1138.59 923.995 1136.62 929.911 1133.91 934.734C1132.55 937.149 1131.06 939.188 1129.51 940.577C1127.96 941.961 1126.49 942.57 1125.1 942.504L1124.9 946.499ZM1142.6 918.829C1133.05 912.577 1118.18 900.906 1104.72 886.296C1091.23 871.655 1079.34 854.263 1075.45 836.572L1071.55 837.431C1075.66 856.14 1088.1 874.164 1101.78 889.007C1115.48 903.88 1130.61 915.759 1140.4 922.174L1142.6 918.829ZM1075.45 836.572C1065.22 790.029 1028.17 776.573 1011.03 766.286L1008.97 769.716C1026.83 780.43 1061.78 792.974 1071.55 837.431L1075.45 836.572ZM1011.03 766.286C1002.19 760.981 991.848 755.37 985.464 743.021C979.089 730.687 976.499 711.24 984.445 677.966L980.555 677.037C972.501 710.763 974.911 731.316 981.911 744.857C988.902 758.382 1000.31 764.522 1008.97 769.716L1011.03 766.286ZM984.445 677.966C992.409 644.618 1004.11 613.857 1014.78 588.656C1020.11 576.054 1025.18 564.859 1029.4 555.41C1033.6 545.996 1036.98 538.251 1038.89 532.647L1035.11 531.356C1033.27 536.752 1029.97 544.319 1025.74 553.78C1021.54 563.207 1016.45 574.449 1011.1 587.097C1000.39 612.396 988.591 643.385 980.555 677.037L984.445 677.966ZM1038.89 532.647C1046.43 510.546 1060.97 456.392 1065.49 411.2L1061.51 410.802C1057.03 455.611 1042.57 509.457 1035.11 531.356L1038.89 532.647ZM1065.49 411.2C1067.76 388.487 1064.61 361.572 1063 335.378C1061.37 308.998 1061.29 283.271 1069.37 262.218L1065.63 260.785C1057.21 282.732 1057.38 309.255 1059 335.624C1060.64 362.18 1063.74 388.516 1061.51 410.802L1065.49 411.2ZM1171.67 94.6221C1187.98 82.8306 1200.38 73.5321 1211.03 67.0879C1221.67 60.6585 1230.31 57.237 1239.05 57.0007L1238.95 53.0022C1229.19 53.2659 1219.83 57.0944 1208.97 63.665C1198.12 70.2208 1185.52 79.6723 1169.33 91.3807L1171.67 94.6221ZM1239.05 57.0007C1239.65 56.9845 1240.61 57.2406 1241.99 58.0782C1243.34 58.8965 1244.92 60.1559 1246.72 61.8499C1250.32 65.236 1254.57 70.1495 1259.36 76.1412C1268.98 88.1656 1280.4 104.056 1292.79 120.099C1305.12 136.05 1318.3 152.01 1331.17 163.775C1337.6 169.658 1344.02 174.547 1350.27 177.86C1356.51 181.17 1362.71 182.974 1368.66 182.495L1368.34 178.508C1363.41 178.904 1357.99 177.427 1352.14 174.326C1346.3 171.229 1340.16 166.579 1333.87 160.822C1321.27 149.305 1308.26 133.578 1295.96 117.654C1283.73 101.822 1272.09 85.6498 1262.48 73.6429C1257.67 67.619 1253.27 62.5247 1249.46 58.9382C1247.56 57.1459 1245.75 55.6777 1244.06 54.6556C1242.4 53.6529 1240.66 52.9558 1238.95 53.0022L1239.05 57.0007ZM1368.66 182.495C1380.01 181.582 1390.5 176.7 1400.4 170.061C1410.3 163.43 1419.76 154.939 1429.02 146.681C1438.32 138.379 1447.41 130.316 1456.7 124.314C1465.98 118.32 1475.29 114.501 1485 114.501V110.501C1474.21 110.501 1464.14 114.745 1454.53 120.954C1444.93 127.155 1435.61 135.437 1426.36 143.697C1417.05 152.001 1407.8 160.291 1398.18 166.738C1388.57 173.178 1378.74 177.671 1368.34 178.508L1368.66 182.495ZM1485 114.501C1512.6 114.501 1535.21 130.097 1549.5 141.902L1552.04 138.818C1537.61 126.893 1514.06 110.501 1485 110.501V114.501ZM1069.37 262.218C1079.78 235.076 1105.29 184.153 1130.82 144.586L1127.46 142.417C1101.8 182.185 1076.16 233.353 1065.63 260.785L1069.37 262.218ZM1130.82 144.586C1145.57 121.73 1160.14 102.964 1171.67 94.6221L1169.33 91.3807C1157.11 100.214 1142.19 119.587 1127.46 142.417L1130.82 144.586Z" fill="#884200"/>
</svg>
