<svg width="167" height="104" viewBox="0 0 167 104" fill="none" xmlns="http://www.w3.org/2000/svg">
<path opacity="0.6" d="M125.202 89.6255H41.7742C38.259 89.6255 35.0374 88.3556 33.4222 86.3333L28.5703 80.2587C26.7436 77.9717 27.3345 75.1878 30.0461 73.3049L76.0918 41.3326C79.8159 38.7467 86.1457 38.7518 89.8599 41.3437L135.992 73.5351C138.526 75.3037 139.21 77.8746 137.735 80.0905L133.838 85.9459C132.351 88.179 128.957 89.6255 125.202 89.6255Z" fill="#055252"/>
<path opacity="0.6" d="M25.2639 75.6086L9.53534 25.1084C8.6569 22.288 14.4372 20.7564 16.8623 23.167L83.7204 89.6258H41.7745C38.2593 89.6258 35.0377 88.3559 33.4225 86.3336L26.1297 77.203C25.7281 76.7002 25.4367 76.1636 25.2639 75.6086Z" fill="#006462"/>
<path opacity="0.6" d="M141.745 76.0442L157.473 25.544C158.352 22.7235 152.572 21.1919 150.146 23.6026L83.2884 90.0613H125.234C128.749 90.0613 131.971 88.7914 133.586 86.7691L140.879 77.6385C141.281 77.1357 141.572 76.5991 141.745 76.0442Z" fill="#006462"/>
<path d="M0 84.0787V81.2207C0 78.8426 2.63495 77.4099 4.63096 78.7028L6.73646 80.0666C7.37149 80.4779 7.82764 81.114 8.01354 81.8474L9.38971 87.2769C9.69819 88.494 10.732 89.3902 11.9805 89.523L22.5697 90.6491C22.9663 90.6913 23.3475 90.8262 23.6823 91.0431C25.8069 92.4193 24.8323 95.7166 22.301 95.7166H16.3354C15.7566 95.7166 15.1902 95.5492 14.7045 95.2345L1.36904 86.5966C0.515359 86.0437 0 85.0958 0 84.0787Z" fill="#01BCB7" fill-opacity="0.6"/>
<path d="M166.577 84.0787V81.2207C166.577 78.8426 163.942 77.4099 161.946 78.7028L159.841 80.0666C159.206 80.4779 158.75 81.114 158.564 81.8474L157.187 87.2769C156.879 88.494 155.845 89.3902 154.597 89.523L144.007 90.6491C143.611 90.6913 143.23 90.8262 142.895 91.0431C140.77 92.4193 141.745 95.7166 144.276 95.7166H150.242C150.82 95.7166 151.387 95.5492 151.873 95.2345L165.208 86.5966C166.062 86.0437 166.577 85.0958 166.577 84.0787Z" fill="#01BCB7" fill-opacity="0.6"/>
<ellipse cx="83.2885" cy="94.846" rx="56.4213" ry="8.70152" fill="url(#paint0_radial_1511_16086)"/>
<path d="M131.15 89.6262C131.15 89.7641 131.028 90.0449 130.405 90.428C129.816 90.7906 128.915 91.1583 127.707 91.5179C125.299 92.2351 121.789 92.8873 117.423 93.4372C108.698 94.5361 96.6293 95.2173 83.2889 95.2173C69.9484 95.2173 57.88 94.5361 49.1549 93.4372C44.7888 92.8873 41.2792 92.2351 38.8709 91.5179C37.663 91.1583 36.7615 90.7906 36.1723 90.428C35.55 90.0449 35.4277 89.7641 35.4277 89.6262C35.4277 89.4883 35.55 89.2075 36.1723 88.8245C36.7615 88.4618 37.663 88.0942 38.8709 87.7345C41.2792 87.0174 44.7888 86.3652 49.1549 85.8153C57.88 84.7163 69.9484 84.0352 83.2889 84.0352C96.6293 84.0352 108.698 84.7163 117.423 85.8153C121.789 86.3652 125.299 87.0174 127.707 87.7345C128.915 88.0942 129.816 88.4618 130.405 88.8245C131.028 89.2075 131.15 89.4883 131.15 89.6262Z" fill="#01BCB7" fill-opacity="0.79" stroke="#01BCB7"/>
<defs>
<radialGradient id="paint0_radial_1511_16086" cx="0" cy="0" r="1" gradientUnits="userSpaceOnUse" gradientTransform="translate(87.3186 85.2744) rotate(46.4673) scale(23.4047 35.2963)">
<stop stop-color="#000C0C"/>
<stop offset="1" stop-color="#00827E"/>
</radialGradient>
</defs>
</svg>
