<svg width="101" height="32" viewBox="0 0 101 32" fill="none" xmlns="http://www.w3.org/2000/svg">
<path fill-rule="evenodd" clip-rule="evenodd" d="M32.7077 10.8542C32.7077 11.8782 33.5378 12.7083 34.5618 12.7083C35.5859 12.7083 36.416 11.8782 36.416 10.8542C36.416 9.83014 35.5859 9 34.5618 9C33.5378 9 32.7077 9.83014 32.7077 10.8542ZM38.7077 16.8542C38.7077 17.8782 39.5378 18.7083 40.5618 18.7083C41.5859 18.7083 42.416 17.8782 42.416 16.8542C42.416 15.8301 41.5859 15 40.5618 15C39.5378 15 38.7077 15.8301 38.7077 16.8542ZM46.5618 24.7083C45.5378 24.7083 44.7077 23.8782 44.7077 22.8542C44.7077 21.8301 45.5378 21 46.5618 21C47.5859 21 48.416 21.8301 48.416 22.8542C48.416 23.8782 47.5859 24.7083 46.5618 24.7083ZM39.8535 24.7083C38.8295 24.7083 37.9993 23.8782 37.9993 22.8542C37.9993 21.8301 38.8295 21 39.8535 21C40.8775 21 41.7077 21.8301 41.7077 22.8542C41.7077 23.8782 40.8775 24.7083 39.8535 24.7083ZM33.8535 18.7083C32.8295 18.7083 31.9993 17.8782 31.9993 16.8542C31.9993 15.8301 32.8295 15 33.8535 15C34.8775 15 35.7077 15.8301 35.7077 16.8542C35.7077 17.8782 34.8775 18.7083 33.8535 18.7083ZM23.7077 16.8542C23.7077 17.8782 24.5378 18.7083 25.5618 18.7083C26.5859 18.7083 27.416 17.8782 27.416 16.8542C27.416 15.8301 26.5859 15 25.5618 15C24.5378 15 23.7077 15.8301 23.7077 16.8542ZM18.8535 18.7083C17.8295 18.7083 16.9993 17.8782 16.9993 16.8542C16.9993 15.8301 17.8295 15 18.8535 15C19.8775 15 20.7077 15.8301 20.7077 16.8542C20.7077 17.8782 19.8775 18.7083 18.8535 18.7083ZM27.8535 12.7083C26.8295 12.7083 25.9993 11.8782 25.9993 10.8542C25.9993 9.83014 26.8295 9 27.8535 9C28.8775 9 29.7077 9.83014 29.7077 10.8542C29.7077 11.8782 28.8775 12.7083 27.8535 12.7083ZM17.7077 10.8542C17.7077 11.8782 18.5378 12.7083 19.5618 12.7083C20.5859 12.7083 21.416 11.8782 21.416 10.8542C21.416 9.83014 20.5859 9 19.5618 9C18.5378 9 17.7077 9.83014 17.7077 10.8542ZM12.8535 12.7083C11.8295 12.7083 10.9993 11.8782 10.9993 10.8542C10.9993 9.83014 11.8295 9 12.8535 9C13.8775 9 14.7077 9.83014 14.7077 10.8542C14.7077 11.8782 13.8775 12.7083 12.8535 12.7083Z" fill="url(#paint0_linear_1406_129130)"/>
<g filter="url(#filter0_b_1406_129130)">
<path d="M1 1L18 1L40 31H1V1Z" fill="#168E8A" fill-opacity="0.1"/>
</g>
<g filter="url(#filter1_b_1406_129130)">
<path d="M1 31L18 31L40 1H1V31Z" fill="#168E8A" fill-opacity="0.1"/>
</g>
<defs>
<filter id="filter0_b_1406_129130" x="-2" y="-2" width="45" height="36" filterUnits="userSpaceOnUse" color-interpolation-filters="sRGB">
<feFlood flood-opacity="0" result="BackgroundImageFix"/>
<feGaussianBlur in="BackgroundImageFix" stdDeviation="1.5"/>
<feComposite in2="SourceAlpha" operator="in" result="effect1_backgroundBlur_1406_129130"/>
<feBlend mode="normal" in="SourceGraphic" in2="effect1_backgroundBlur_1406_129130" result="shape"/>
</filter>
<filter id="filter1_b_1406_129130" x="-2" y="-2" width="45" height="36" filterUnits="userSpaceOnUse" color-interpolation-filters="sRGB">
<feFlood flood-opacity="0" result="BackgroundImageFix"/>
<feGaussianBlur in="BackgroundImageFix" stdDeviation="1.5"/>
<feComposite in2="SourceAlpha" operator="in" result="effect1_backgroundBlur_1406_129130"/>
<feBlend mode="normal" in="SourceGraphic" in2="effect1_backgroundBlur_1406_129130" result="shape"/>
</filter>
<linearGradient id="paint0_linear_1406_129130" x1="48.121" y1="23.7399" x2="13.8038" y2="13.9716" gradientUnits="userSpaceOnUse">
<stop stop-color="#01D2CC"/>
<stop offset="1" stop-color="#01D2CC" stop-opacity="0.1"/>
</linearGradient>
</defs>
</svg>
